<svg xmlns="http://www.w3.org/2000/svg" xmlns:xlink="http://www.w3.org/1999/xlink" width="572" height="261" viewBox="0 0 572 261">
    <defs>
        <path id="a" d="M0 .66h62.389v54.869H0z"/>
        <path id="c" d="M.999 0h30.506v30.517H.999z"/>
    </defs>
    <g fill="none" fill-rule="evenodd">
        <path fill="#0091FF" d="M293.316 109.7l-41.417.191.139 30.03.029 6.325 6.294-6.354 35.094-.162z"/>
        <text fill="#FFF" font-family="WorkSans-SemiBold, Work Sans" font-size="15" font-weight="500" transform="translate(251.9 109.7)">
            <tspan x="8.113" y="19.299">&lt;/&gt;</tspan>
        </text>
        <g fill-rule="nonzero">
            <path fill="#3ABCA7" d="M317.575 66.043l-28.482 9.254c-3.73 1.212-7.755-.887-8.99-4.689l-9.433-29.03c-1.235-3.802.788-7.866 4.517-9.078l28.483-9.255c3.73-1.212 7.755.888 8.99 4.69l9.433 29.03c1.235 3.801-.788 7.866-4.518 9.078z"/>
            <path fill="#FFF" d="M307.707 34.672l-14.535 4.723a.857.857 0 0 1-1.075-.56.857.857 0 0 1 .54-1.086l14.536-4.723a.857.857 0 0 1 1.074.56.857.857 0 0 1-.54 1.086zM311.451 46.195l-14.535 4.722a.857.857 0 0 1-1.075-.56.857.857 0 0 1 .54-1.086l14.535-4.722a.857.857 0 0 1 1.075.56.857.857 0 0 1-.54 1.086zM315.195 57.717L300.66 62.44a.857.857 0 0 1-1.075-.56.857.857 0 0 1 .54-1.086l14.535-4.723a.857.857 0 0 1 1.075.56.857.857 0 0 1-.54 1.086zM282.727 45.519a.836.836 0 0 1-.538-.008l-4.608-1.622a.876.876 0 0 1-.536-1.1.839.839 0 0 1 1.077-.531l3.853 1.356 3.096-7.638a.837.837 0 0 1 1.11-.459.876.876 0 0 1 .464 1.132l-3.398 8.383a.842.842 0 0 1-.52.487zM286.47 57.041a.836.836 0 0 1-.537-.007l-4.608-1.623a.876.876 0 0 1-.536-1.099.839.839 0 0 1 1.077-.532l3.853 1.356 3.096-7.637a.837.837 0 0 1 1.11-.46.876.876 0 0 1 .464 1.132l-3.398 8.383a.842.842 0 0 1-.52.487zM290.482 69.386a.836.836 0 0 1-.538-.008l-4.608-1.622a.876.876 0 0 1-.536-1.1.84.84 0 0 1 1.077-.531l3.853 1.356 3.096-7.637a.837.837 0 0 1 1.11-.459.876.876 0 0 1 .464 1.132l-3.398 8.382a.842.842 0 0 1-.52.487z"/>
            <g transform="rotate(-18 315.69 -927.46)">
                <ellipse cx="10.5" cy="10.5" fill="#26B999" rx="10.08" ry="10.5"/>
                <path fill="#FFF" d="M16.02 5.407a.818.818 0 0 0-1.17.218l-4.7 7.035-3.317-2.836a.816.816 0 0 0-1.182.121.898.898 0 0 0 .116 1.231l4.02 3.438a.822.822 0 0 0 .648.191.84.84 0 0 0 .575-.367l5.22-7.813a.9.9 0 0 0-.21-1.218z"/>
            </g>
        </g>
        <path fill="#FFCA55" d="M476.448 19.37l-58.887.271.196 42.698.042 8.993 8.948-9.034 49.897-.231z"/>
        <path fill="#FFF" d="M451.604 42.548a4.496 4.496 0 1 1-8.994.027 4.496 4.496 0 1 1 8.994-.028M466.377 42.501a4.498 4.498 0 0 1-8.996.029 4.498 4.498 0 1 1 8.996-.029M437.174 42.593a4.499 4.499 0 1 1-8.996.03 4.499 4.499 0 0 1 8.996-.03"/>
        <path fill="#0091FF" d="M571.587 50.886l-51.814.24.174 37.567.035 7.914 7.875-7.95 43.903-.203z"/>
        <g fill="#FFF" fill-rule="nonzero">
            <path d="M542.527 76.5a.477.477 0 0 1-.305-.11l-3.056-2.54a.456.456 0 0 1 0-.7l3.056-2.54a.48.48 0 0 1 .665.052.453.453 0 0 1-.053.65L540.2 73.5l2.633 2.188a.453.453 0 0 1 .053.65.476.476 0 0 1-.36.162zM548.472 76.5a.475.475 0 0 1-.36-.162.453.453 0 0 1 .054-.65l2.633-2.188-2.633-2.188a.453.453 0 0 1-.053-.65.48.48 0 0 1 .665-.052l3.056 2.54a.456.456 0 0 1 0 .7l-3.056 2.54a.477.477 0 0 1-.306.11zM544.498 78.5a.53.53 0 0 1-.103-.01.474.474 0 0 1-.384-.56l2.005-9.055a.498.498 0 0 1 .59-.365c.268.054.44.305.383.56l-2.005 9.055a.492.492 0 0 1-.486.375z"/>
            <path d="M556.785 82.5h-22.57c-1.773 0-3.215-1.409-3.215-3.141V60.641c0-1.732 1.442-3.141 3.215-3.141h22.57c1.773 0 3.215 1.41 3.215 3.141v18.718c0 1.732-1.442 3.141-3.215 3.141zm-22.57-24.064c-1.245 0-2.257.989-2.257 2.205v18.718c0 1.216 1.012 2.205 2.257 2.205h22.57c1.245 0 2.257-.989 2.257-2.205V60.641c0-1.216-1.012-2.205-2.257-2.205h-22.57z"/>
            <path d="M559.521 65.5H531.48A.49.49 0 0 1 531 65c0-.276.214-.5.479-.5h28.042a.49.49 0 0 1 .479.5.49.49 0 0 1-.479.5zM539.5 62.5c-.827 0-1.5-.673-1.5-1.5s.673-1.5 1.5-1.5 1.5.673 1.5 1.5-.673 1.5-1.5 1.5zm0-2.052a.553.553 0 1 0 .001 1.105.553.553 0 0 0-.001-1.105zM534.5 62.5c-.827 0-1.5-.673-1.5-1.5s.673-1.5 1.5-1.5 1.5.673 1.5 1.5-.673 1.5-1.5 1.5zm0-2.052a.553.553 0 1 0 .002 1.106.553.553 0 0 0-.002-1.106zM544.5 62.5c-.827 0-1.5-.673-1.5-1.5s.673-1.5 1.5-1.5 1.5.673 1.5 1.5-.673 1.5-1.5 1.5zm0-2.052a.553.553 0 1 0 .001 1.105.553.553 0 0 0-.001-1.105z"/>
        </g>
        <g transform="translate(0 50.084)">
            <mask id="b" fill="#fff">
                <use xlink:href="#a"/>
            </mask>
            <path fill="#0091FF" d="M.207.66l62.182.287-.207 45.085-.044 9.497-9.45-9.54L0 45.745z" mask="url(#b)"/>
            <g fill="#FFF" fill-rule="nonzero" mask="url(#b)">
                <g transform="translate(20 11.916)">
                    <circle cx="14.609" cy="10.5" r="1"/>
                    <path d="M14.736 12.004c-.24-.033-.462.122-.498.345-.12.754-.802 1.38-1.827 1.673-1.094.314-2.614.209-3.541-.734a.46.46 0 0 0-.619-.024.39.39 0 0 0-.026.577c.536.546 1.265.918 2.108 1.076a5.186 5.186 0 0 0 2.336-.113c1.355-.389 2.265-1.262 2.436-2.335.035-.224-.13-.431-.37-.465z"/>
                    <path d="M20.748 8.182c-.787-.906-1.873-1.493-3.18-1.728 1.252-.839 2.331-1.673 3.101-2.401 1.174-1.11 1.567-1.89 1.239-2.455-.366-.628-1.422-.624-3.323.014-1.606.54-3.607 1.476-5.634 2.638-.35.2-.697.406-1.036.613-.252-.706-.086-1.512.47-2.21.416-.524.508-1.188.242-1.735-.28-.573-.892-.916-1.64-.918h-.02C8.324 0 5.74 1.034 3.69 2.912 1.64 4.792.383 7.282.153 9.922c-.275 3.178.749 6.2 2.883 8.51A11.142 11.142 0 0 0 11.193 22c1.662 0 3.222-.302 4.637-.897a10.437 10.437 0 0 0 3.414-2.31 10.202 10.202 0 0 0 2.112-3.135c.476-1.108.736-2.282.753-3.396.023-1.619-.447-3.03-1.36-4.08zm-8.782-2.339c.458-.287.935-.572 1.418-.85 1.874-1.073 3.74-1.958 5.255-2.49 1.668-.586 2.35-.547 2.51-.472-.014.1-.14.545-1.233 1.545-.914.835-2.248 1.817-3.757 2.765a42.49 42.49 0 0 1-3.538 1.992 6.437 6.437 0 0 0-1.228-2.124c.188-.122.379-.245.573-.366zm-.13 2.871c-1.222.576-2.344 1.014-3.24 1.269a2.142 2.142 0 0 0-.653-1.143c.67-.643 1.614-1.387 2.726-2.148a5.605 5.605 0 0 1 1.167 2.022zm9.407 3.536c-.062 4.276-3.922 8.89-10.05 8.89a10.27 10.27 0 0 1-7.519-3.29C1.706 15.721.762 12.931 1.016 9.995 1.453 4.958 5.917.86 10.966.86h.02c.414.001.728.159.861.433.123.252.07.561-.142.828-.78.982-.976 2.19-.535 3.208a37.172 37.172 0 0 0-.684.447c-1.377.922-2.54 1.84-3.313 2.611a2.168 2.168 0 0 0-1.78.173c-.899.516-2.08 2.919-2.308 3.395a.427.427 0 0 0 .017.4.433.433 0 0 0 .34.213c.239.019.918.067 1.675.067.918 0 1.948-.071 2.442-.354a2.145 2.145 0 0 0 1.032-1.405c1.062-.277 2.45-.818 3.952-1.544a41.705 41.705 0 0 0 3.869-2.133h.007c3.609.103 4.858 2.677 4.824 5.052zM7.773 10.5c-.028.432-.27.82-.647 1.036-.41.235-1.816.266-2.971.214.531-1.019 1.262-2.212 1.672-2.447a1.303 1.303 0 0 1 1.774.472c.129.221.188.472.172.725z"/>
                    <path d="M7.61 3c-.828 0-1.5.673-1.5 1.5S6.781 6 7.61 6c.826 0 1.5-.673 1.5-1.5S8.435 3 7.61 3zm0 2.25a.75.75 0 1 1 .001-1.502.75.75 0 0 1-.002 1.502zM5.61 14c-.828 0-1.5.673-1.5 1.5s.672 1.5 1.5 1.5c.826 0 1.5-.673 1.5-1.5S6.435 14 5.61 14zm0 2.25a.75.75 0 1 1 .001-1.502.75.75 0 0 1-.002 1.502zM9.61 17c-.828 0-1.5.673-1.5 1.5s.672 1.5 1.5 1.5c.826 0 1.5-.673 1.5-1.5s-.674-1.5-1.5-1.5zm0 2.25a.75.75 0 1 1 .001-1.502.75.75 0 0 1-.002 1.502zM14.61 16c-.828 0-1.5.673-1.5 1.5s.672 1.5 1.5 1.5c.826 0 1.5-.673 1.5-1.5s-.674-1.5-1.5-1.5zm0 2.25a.75.75 0 1 1 .001-1.502.75.75 0 0 1-.002 1.502zM18.61 12c-.828 0-1.5.673-1.5 1.5s.672 1.5 1.5 1.5c.826 0 1.5-.673 1.5-1.5s-.674-1.5-1.5-1.5zm0 2.25a.75.75 0 1 1 .001-1.502.75.75 0 0 1-.002 1.502z"/>
                </g>
            </g>
        </g>
        <path fill="#FFCA55" d="M215.306 114.406a4.118 4.118 0 0 1 2.85-7.725 4.118 4.118 0 0 1-2.85 7.725m7.622-1.575a6.61 6.61 0 0 0-3.912-8.487 6.604 6.604 0 0 0-8.483 3.914s-.137.264-.27.931c-.044.218-.079.438-.103.657-.26 2.024-.285 6.272 1.547 14.321 6.617-4.93 9.355-8.175 10.471-9.885a6.44 6.44 0 0 0 .349-.57c.333-.59.401-.881.401-.881"/>
        <g transform="translate(489.779 .365)">
            <path fill="#44D7B6" d="M16.537 20.62L9.07 17.375a1.208 1.208 0 1 1 .964-2.217l5.279 2.295 3.81-8.45a1.209 1.209 0 1 1 2.206.993L16.537 20.62z"/>
            <mask id="d" fill="#fff">
                <use xlink:href="#c"/>
            </mask>
            <path fill="#44D7B6" d="M8.731 4.553c-5.898 4.15-7.326 12.325-3.18 18.227 4.145 5.903 12.319 7.33 18.22 3.183 5.9-4.148 7.327-12.324 3.182-18.226C22.805 1.833 14.632.407 8.73 4.553m16.294 23.194c-6.885 4.84-16.42 3.173-21.258-3.713C-1.07 17.148.595 7.608 7.48 2.77c6.883-4.84 16.418-3.173 21.255 3.714 4.839 6.885 3.172 16.424-3.71 21.263" mask="url(#d)"/>
        </g>
        <g>
            <path fill="#FFC655" d="M198.001 90.013l-19.861-4.057 2.776-13.604 19.861 4.058z"/>
            <path fill="#FFBC55" d="M178.14 85.956l11.482-5.576 8.38 9.633z"/>
            <path fill="#FFA655" d="M200.777 76.41l-11.66 6.446-8.2-10.503z"/>
        </g>
        <path fill="#EB4747" d="M475.235 82.082c-5.204-.053-6.994 4.633-6.994 4.633s-4.33-2.532-8.351.767c-4.022 3.302-1.956 6.533-1.956 6.533 2.838 6.927 16.545 10.432 16.545 10.432s8.493-11.32 6.37-18.498c0 0-.413-3.814-5.614-3.867"/>
        <g fill="#FFD255">
            <path d="M113.21 56.258c-4.437 1.435-6.88 6.214-5.446 10.654a8.452 8.452 0 0 0 5.773 5.545l.105.029.073.08c1.03 1.127 2.452 2.867 3.38 4.75l.011.025c.287.718.892 1.262 1.704 1.533.834.278 1.78.234 2.664-.121 1.807-.724 2.785-2.537 2.183-4.041l-.006-.014-.004-.013c-.486-1.54-.767-3.392-.833-5.507l-.005-.12.065-.099a8.428 8.428 0 0 0 .985-7.253c-1.434-4.438-6.211-6.883-10.648-5.448m8.216 23.314c-.954.308-1.957.316-2.856.016-1.02-.34-1.786-1.033-2.16-1.952-.866-1.756-2.192-3.394-3.181-4.484a9.201 9.201 0 0 1-6.182-6.01c-1.562-4.833 1.098-10.039 5.93-11.601 4.833-1.563 10.036 1.098 11.598 5.933a9.175 9.175 0 0 1-1.006 7.798c.072 1.99.338 3.73.79 5.173.748 1.887-.418 4.131-2.604 5.007-.11.045-.219.085-.329.12"/>
            <path d="M118.657 77.31l-4.918-8.837 2.593.81.656-1.825 1.55.826 1.182-2.275 2.707 9.759-.727.202-2.194-7.914-.651 1.252-1.453-.774-.606 1.685-1.481-.463 4.001 7.188zM125.42 79.828l-6.063 2.435-.981-2.444 6.064-2.435z"/>
            <path d="M125.991 78.43l-8.014 3.219-1.578-3.935 8.013-3.218z"/>
        </g>
        <path fill="#0091FF" d="M567.92 165.075c-.02 52.004-1.478 62.183-14.531 73.835-5.113 4.563-14.515 14.042-41.643 18.761-8.143 1.418-17.883 2.406-29.58 2.704-4.774.121-9.155-.052-13.163-.489-3.36-.363-6.458-.914-9.304-1.626-29.815-7.473-32.042-33.028-19.002-54.525 3.454-5.693 7.401-10.926 11.538-15.805 6.386-7.536 13.233-14.229 19.433-20.477 5.715-5.756 10.882-11.136 14.637-16.447 1.584-2.237 2.917-4.462 3.935-6.7a111.978 111.978 0 0 1 3.192-6.44 115.949 115.949 0 0 1 4.7-7.973 115.76 115.76 0 0 1 3.525-5.167c3.806-5.264 6.635-8.219 6.635-8.219s.352-.165 1.004-.436c.346-.145.78-.32 1.29-.515.205-.078.42-.16.65-.244.226-.084.465-.17.715-.26.229-.08.468-.164.712-.247.29-.1.59-.2.903-.302.184-.059.371-.12.563-.18l.343-.106c.044-.013.088-.028.132-.04 3.871-1.188 9.18-2.424 14.959-2.63 17.133-.612 38.377 7.84 38.357 53.528"/>
    </g>
</svg>
