<svg xmlns="http://www.w3.org/2000/svg" xmlns:xlink="http://www.w3.org/1999/xlink" width="560" height="217" viewBox="0 0 560 217">
    <defs>
        <path id="a" d="M533.554.512H9.084c-22.23.433 5.615 5.006 7.457 23.665 1.845 18.66 205.986 22.903 272.853 25.45 49.96 1.899 58.018 27.474 80.147 27.552h.208c7.45-.027 16.504-2.94 29.268-10.59C449.962 36.052 532.15 41.143 553.5 19.816c4.37-4.365 6.116-7.75 6.128-10.376v-.061C559.584 1.275 542.955.46 536.28.46c-1.677 0-2.726.05-2.726.05"/>
        <linearGradient id="b" x1="6.05%" x2="90.766%" y1="50.811%" y2="49.274%">
            <stop offset="0%" stop-color="#1860E8" stop-opacity=".076"/>
            <stop offset="100%" stop-color="#00A1FF" stop-opacity=".198"/>
        </linearGradient>
        <path id="d" d="M4.532.502c-14.89 7.135 13.271 19.462 3.56 36.652-9.71 17.192 3.759 16.564 9.348 32.56C21.288 80.73 1.62 90.351 13.92 98.46c12.3 8.109 24.229 34.317 24.229 34.317 13.545 10.641 1.876-15.252 10.88-36.959 9.003-21.707-18.277-10.008-3.79-36.93 14.489-26.922-16.915-9.245-15.133-35.031.557-8.075-2.316-7.788-6.252-7.5-3.247.237-7.216.475-10.581-3.981 0 0-3.773-12.09-7.825-12.09-.303 0-.61.07-.915.216"/>
        <linearGradient id="e" x1="-.001%" x2="99.999%" y1="50%" y2="50%">
            <stop offset="0%" stop-color="#3FD4E6"/>
            <stop offset="100%" stop-color="#5477FF"/>
        </linearGradient>
        <path id="g" d="M35.605 2.342c-1.213.656-2.212 1.692-3.269 2.787-2.489 2.583-5.586 5.795-13.42 5.832-4.466.02-6.912.632-8.18 2.043-1.438 1.601-1.166 3.997-.792 7.315.131 1.146.277 2.447.367 3.852.533 8.38-4.462 14.428-4.511 14.487C2.817 42.18-.86 49.482.726 53.976c.666 1.885 2.153 3.072 4.422 3.525.904.181 1.729.269 2.487.269 5.48-.002 7.486-4.504 10.137-10.455.556-1.25 1.13-2.538 1.78-3.9 3.363-7.031 6.342-8.19 11.277-10.107a89.773 89.773 0 0 0 4.071-1.669c7.07-3.148 5.701-7.785 4.493-11.879-.168-.573-.338-1.141-.483-1.706-.62-2.407.573-3.614 2.38-5.443 1.346-1.358 3.017-3.048 4.307-5.718 1.41-2.922.691-4.489-.16-5.29-.774-.725-1.983-1.08-3.42-1.08-1.897 0-4.193.617-6.412 1.82M5.342 56.556c-1.91-.384-3.153-1.359-3.696-2.898-1.399-3.962 1.946-10.897 4.9-14.382.217-.256 5.296-6.39 4.737-15.167-.091-1.428-.24-2.74-.372-3.9-.346-3.068-.597-5.285.554-6.565 1.05-1.17 3.35-1.7 7.457-1.718 8.246-.04 11.503-3.417 14.118-6.131 1.047-1.086 1.95-2.024 3.031-2.608 3.487-1.886 7.225-2.265 8.696-.884 1.117 1.05.59 2.849-.05 4.172-1.218 2.526-2.76 4.085-4.122 5.46-1.89 1.913-3.386 3.424-2.627 6.357.148.574.32 1.157.492 1.738 1.202 4.076 2.338 7.925-3.958 10.728-1.48.659-2.833 1.185-4.029 1.65-4.982 1.937-8.273 3.216-11.8 10.594-.656 1.372-1.234 2.67-1.792 3.922-2.662 5.976-4.4 9.88-9.24 9.88-.698 0-1.46-.081-2.3-.248"/>
        <linearGradient id="h" x1=".001%" x2="99.999%" y1="49.999%" y2="49.999%">
            <stop offset="0%" stop-color="#3FD4E6"/>
            <stop offset="100%" stop-color="#5477FF"/>
        </linearGradient>
        <path id="j" d="M23.664 7.556c-1.406 4.979-4.358 12.399-13.717 19.302C1.415 33.15.203 54.652.155 55.564l.96.05c.012-.218 1.23-21.947 9.397-27.969 9.6-7.082 12.632-14.705 14.076-19.822 1.491-5.282 9.607-6.795 9.688-6.81L34.11.056c-.36.064-8.79 1.632-10.446 7.5"/>
        <linearGradient id="k" x1=".001%" x2="100.001%" y1="50%" y2="50%">
            <stop offset="0%" stop-color="#3FD4E6"/>
            <stop offset="100%" stop-color="#5477FF"/>
        </linearGradient>
        <path id="m" d="M25.54 19.25c-2.569 8.745-28.59 3.815-17.667 25.714 10.92 21.9-13.815 7.324-6.426 26.435 7.389 19.109.642 39.548 8.675 34.35 8.029-5.2 4.511-29.265 12.862-32.124 8.353-2.86 9.716-6.194 1.447-13.968-8.27-7.774 21.67-15.492 14.28-31.188-7.388-15.696 1.245-25.252-5.783-27.68a4.034 4.034 0 0 0-1.315-.247C27.022.541 27.907 11.198 25.54 19.25"/>
        <linearGradient id="n" x1=".001%" x2="99.999%" y1="50%" y2="50%">
            <stop offset="0%" stop-color="#3FD4E6"/>
            <stop offset="100%" stop-color="#5477FF"/>
        </linearGradient>
        <path id="p" d="M.703.76l8.788 33.632h19.64L37.916.759z"/>
        <linearGradient id="q" x1=".001%" x2="99.999%" y1="50.001%" y2="50.001%">
            <stop offset="0%" stop-color="#FF933F"/>
            <stop offset="100%" stop-color="#FFCD44"/>
        </linearGradient>
        <path id="s" d="M.703.76l8.788 33.632h9.081C18.572 4.424 37.917.759 37.917.759H.703z"/>
        <linearGradient id="t" x1=".001%" x2="99.999%" y1="50.001%" y2="50.001%">
            <stop offset="0%" stop-color="#C87231"/>
            <stop offset="100%" stop-color="#FFCD44"/>
        </linearGradient>
    </defs>
    <g fill="none" fill-rule="evenodd">
        <g transform="translate(0 139)">
            <mask id="c" fill="#fff">
                <use xlink:href="#a"/>
            </mask>
            <path fill="url(#b)" d="M533.554.512H9.084c-22.23.433 5.615 5.006 7.457 23.665 1.845 18.66 205.986 22.903 272.853 25.45 49.96 1.899 58.018 27.474 80.147 27.552h.208c7.45-.027 16.504-2.94 29.268-10.59C449.962 36.052 532.15 41.143 553.5 19.816c4.37-4.365 6.116-7.75 6.128-10.376v-.061C559.584 1.275 542.955.46 536.28.46c-1.677 0-2.726.05-2.726.05" mask="url(#c)"/>
        </g>
        <g transform="translate(106)">
            <mask id="f" fill="#fff">
                <use xlink:href="#d"/>
            </mask>
            <path fill="url(#e)" d="M4.532.502c-14.89 7.135 13.271 19.462 3.56 36.652-9.71 17.192 3.759 16.564 9.348 32.56C21.288 80.73 1.62 90.351 13.92 98.46c12.3 8.109 24.229 34.317 24.229 34.317 13.545 10.641 1.876-15.252 10.88-36.959 9.003-21.707-18.277-10.008-3.79-36.93 14.489-26.922-16.915-9.245-15.133-35.031.557-8.075-2.316-7.788-6.252-7.5-3.247.237-7.216.475-10.581-3.981 0 0-3.773-12.09-7.825-12.09-.303 0-.61.07-.915.216" mask="url(#f)"/>
            <path fill="#FFF" d="M42.447 123c-5.81-4.125-12.607-32.873-13.013-49.997-.208-8.771-2.775-12.426-5.041-15.65-2.165-3.082-4.035-5.742-2.947-11.854C23.53 33.82 18.056 28.78 18 28.73l.633-.729c.244.214 5.944 5.415 3.76 17.67-1.02 5.711.66 8.1 2.784 11.122 2.229 3.172 5.004 7.12 5.217 16.187C30.83 91.356 37.78 118.5 43 122.207l-.553.793z"/>
        </g>
        <g transform="translate(143 67)">
            <mask id="i" fill="#fff">
                <use xlink:href="#g"/>
            </mask>
            <path fill="url(#h)" d="M35.605 2.342c-1.213.656-2.212 1.692-3.269 2.787-2.489 2.583-5.586 5.795-13.42 5.832-4.466.02-6.912.632-8.18 2.043-1.438 1.601-1.166 3.997-.792 7.315.131 1.146.277 2.447.367 3.852.533 8.38-4.462 14.428-4.511 14.487C2.817 42.18-.86 49.482.726 53.976c.666 1.885 2.153 3.072 4.422 3.525.904.181 1.729.269 2.487.269 5.48-.002 7.486-4.504 10.137-10.455.556-1.25 1.13-2.538 1.78-3.9 3.363-7.031 6.342-8.19 11.277-10.107a89.773 89.773 0 0 0 4.071-1.669c7.07-3.148 5.701-7.785 4.493-11.879-.168-.573-.338-1.141-.483-1.706-.62-2.407.573-3.614 2.38-5.443 1.346-1.358 3.017-3.048 4.307-5.718 1.41-2.922.691-4.489-.16-5.29-.774-.725-1.983-1.08-3.42-1.08-1.897 0-4.193.617-6.412 1.82M5.342 56.556c-1.91-.384-3.153-1.359-3.696-2.898-1.399-3.962 1.946-10.897 4.9-14.382.217-.256 5.296-6.39 4.737-15.167-.091-1.428-.24-2.74-.372-3.9-.346-3.068-.597-5.285.554-6.565 1.05-1.17 3.35-1.7 7.457-1.718 8.246-.04 11.503-3.417 14.118-6.131 1.047-1.086 1.95-2.024 3.031-2.608 3.487-1.886 7.225-2.265 8.696-.884 1.117 1.05.59 2.849-.05 4.172-1.218 2.526-2.76 4.085-4.122 5.46-1.89 1.913-3.386 3.424-2.627 6.357.148.574.32 1.157.492 1.738 1.202 4.076 2.338 7.925-3.958 10.728-1.48.659-2.833 1.185-4.029 1.65-4.982 1.937-8.273 3.216-11.8 10.594-.656 1.372-1.234 2.67-1.792 3.922-2.662 5.976-4.4 9.88-9.24 9.88-.698 0-1.46-.081-2.3-.248" mask="url(#i)"/>
            <g transform="translate(4 8)">
                <mask id="l" fill="#fff">
                    <use xlink:href="#j"/>
                </mask>
                <path fill="url(#k)" d="M23.664 7.556c-1.406 4.979-4.358 12.399-13.717 19.302C1.415 33.15.203 54.652.155 55.564l.96.05c.012-.218 1.23-21.947 9.397-27.969 9.6-7.082 12.632-14.705 14.076-19.822 1.491-5.282 9.607-6.795 9.688-6.81L34.11.056c-.36.064-8.79 1.632-10.446 7.5" mask="url(#l)"/>
            </g>
        </g>
        <g transform="translate(135 22)">
            <mask id="o" fill="#fff">
                <use xlink:href="#m"/>
            </mask>
            <path fill="url(#n)" d="M25.54 19.25c-2.569 8.745-28.59 3.815-17.667 25.714 10.92 21.9-13.815 7.324-6.426 26.435 7.389 19.109.642 39.548 8.675 34.35 8.029-5.2 4.511-29.265 12.862-32.124 8.353-2.86 9.716-6.194 1.447-13.968-8.27-7.774 21.67-15.492 14.28-31.188-7.388-15.696 1.245-25.252-5.783-27.68a4.034 4.034 0 0 0-1.315-.247C27.022.541 27.907 11.198 25.54 19.25" mask="url(#o)"/>
            <path fill="#FFF" d="M13.816 105c-.772-3.288-7.37-32.217-1.215-35.713 5.427-3.082 5.293-15.07 4.446-26.389C16.3 32.878 29.127 28.195 29.674 28l.326.92c-.126.046-12.676 4.63-11.981 13.905.869 11.625.962 23.96-4.937 27.311-4.676 2.656-.371 25.905 1.682 34.64l-.948.224z" mask="url(#o)"/>
        </g>
        <g transform="translate(125 115)">
            <mask id="r" fill="#fff">
                <use xlink:href="#p"/>
            </mask>
            <path fill="url(#q)" d="M.703.76l8.788 33.632h19.64L37.916.759z" mask="url(#r)"/>
        </g>
        <g transform="translate(125 115)">
            <mask id="u" fill="#fff">
                <use xlink:href="#s"/>
            </mask>
            <path fill="url(#t)" d="M.703.76l8.788 33.632h9.081C18.572 4.424 37.917.759 37.917.759H.703z" mask="url(#u)"/>
        </g>
    </g>
</svg>
