<svg xmlns="http://www.w3.org/2000/svg" width="135" height="36" viewBox="0 0 135 36">
    <g fill="none" fill-rule="evenodd">
        <path fill="#0091FF" d="M21.615 0v3.545H3.545v28.91h28.91v-18.07H36V36H0V0h21.615zm-9.666 9.818l6.086 10.17 5.993-10.17h3.09l.046 16.364h-3.531l-.023-9.818-4.785 8.088h-1.696l-4.762-7.878v9.608h-3.53V9.818h3.112zM36 0v7.855h-7.855V0H36z"/>
        <path fill="#000" d="M109.732 21.198c.877 0 1.558.337 2.041 1.01V21.3h2.075v8.244c0 1.06-.315 1.901-.945 2.523-.63.621-1.5.932-2.614.932-1.024 0-1.82-.228-2.387-.684-.568-.456-.88-1.09-.936-1.899h2.007c.056.274.205.493.447.659.242.165.56.248.953.248.956 0 1.434-.548 1.434-1.642v-1.095c-.484.616-1.17.924-2.058.924-.843 0-1.538-.305-2.083-.915-.546-.61-.818-1.531-.818-2.763v-.975c0-1.231.267-2.15.8-2.753.535-.605 1.23-.907 2.084-.907zm-47.43 0c1.079 0 1.922.28 2.53.838.607.559.91 1.334.91 2.326v.171h-1.99v-.102c0-.422-.126-.753-.38-.992-.252-.24-.598-.36-1.037-.36-1.012 0-1.518.622-1.518 1.865v1.607c0 .673.132 1.152.396 1.437.265.285.639.428 1.122.428.439 0 .785-.114 1.038-.342.253-.228.38-.547.38-.958v-.103h1.99v.12c0 .98-.304 1.753-.911 2.318-.608.564-1.451.846-2.53.846-1.103 0-1.971-.302-2.607-.906-.635-.604-.953-1.545-.953-2.822v-1.66c0-1.265.318-2.2.953-2.805.636-.604 1.504-.906 2.606-.906zm-8.67 0c1.102 0 1.976.336 2.622 1.01.647.672.97 1.67.97 2.992v1.18h-5.128v.24c0 .661.147 1.135.44 1.42.291.285.708.427 1.247.427.417 0 .743-.088.979-.265.236-.177.365-.425.388-.744l.017-.051h1.99v.085c0 .844-.31 1.523-.928 2.036-.618.513-1.462.77-2.53.77-1.125 0-2.019-.328-2.682-.984-.664-.656-.995-1.668-.995-3.036V25.2c0-1.334.32-2.334.961-3.001.641-.667 1.524-1.001 2.649-1.001zm34.73 0c1.09 0 1.95.302 2.58.906.63.605.945 1.54.945 2.806v1.659c0 1.277-.315 2.218-.945 2.822-.63.604-1.49.906-2.58.906-1.103 0-1.971-.302-2.607-.906-.635-.604-.953-1.545-.953-2.822v-1.66c0-1.265.318-2.2.953-2.805.636-.604 1.504-.906 2.606-.906zm13.442 0c1.091 0 1.952.302 2.581.906.63.605.945 1.54.945 2.806v1.659c0 1.277-.315 2.218-.945 2.822-.63.604-1.49.906-2.58.906-1.103 0-1.971-.302-2.607-.906-.635-.604-.953-1.545-.953-2.822v-1.66c0-1.265.318-2.2.953-2.805.636-.604 1.504-.906 2.606-.906zm21.388 0c1.102 0 1.977.336 2.623 1.01.647.672.97 1.67.97 2.992v1.18h-5.128v.24c0 .661.146 1.135.439 1.42.292.285.708.427 1.248.427.416 0 .742-.088.978-.265.237-.177.366-.425.389-.744l.016-.051h1.99v.085c0 .844-.308 1.523-.927 2.036-.618.513-1.462.77-2.53.77-1.125 0-2.019-.328-2.682-.984-.664-.656-.996-1.668-.996-3.036V25.2c0-1.334.321-2.334.962-3.001.64-.667 1.524-1.001 2.648-1.001zm8.35 0c.652 0 1.228.111 1.729.333.5.223.888.53 1.164.924.275.394.413.835.413 1.326v.102h-1.94v-.051a.83.83 0 0 0-.363-.718c-.241-.171-.576-.257-1.003-.257-.428 0-.754.086-.979.257a.816.816 0 0 0-.337.684c0 .262.087.467.262.616.174.148.458.25.851.307l1.03.154c.876.126 1.534.4 1.973.821.439.422.658 1.004.658 1.745 0 .912-.326 1.616-.978 2.112-.653.497-1.502.744-2.548.744-1 0-1.805-.247-2.412-.744-.607-.496-.91-1.16-.91-1.992v-.069h1.956v.035c0 .33.132.59.396.778.265.188.61.282 1.038.282.46 0 .82-.083 1.08-.248.258-.165.387-.413.387-.744 0-.274-.095-.485-.286-.633-.192-.148-.512-.257-.962-.325l-.928-.154c-.877-.148-1.524-.422-1.94-.821-.416-.399-.624-.97-.624-1.71 0-.844.307-1.514.92-2.01.612-.496 1.397-.744 2.353-.744zm-35.894-2.805v8.963c0 .364.065.624.194.778.13.154.34.23.633.23h.708v1.83h-.961c-.844 0-1.499-.233-1.966-.7-.466-.468-.7-1.135-.7-2.002v-9.1h2.092zm-15.35 2.805c.9 0 1.598.285 2.092.855.495.57.743 1.351.743 2.343v5.799H81.04v-5.542c0-.502-.124-.89-.371-1.163-.248-.274-.58-.41-.995-.41-.405 0-.74.136-1.004.41-.264.273-.396.661-.396 1.163v5.542h-2.092V21.3h2.041v.803c.259-.296.57-.521.936-.675.366-.154.745-.231 1.139-.231zm-10.794-2.805v3.695c.258-.297.562-.52.91-.668.35-.148.72-.222 1.114-.222.9 0 1.597.282 2.091.847.495.564.743 1.348.743 2.351v5.799H72.27v-5.542c0-.513-.124-.904-.371-1.172-.248-.268-.58-.402-.995-.402-.405 0-.74.137-1.004.411-.264.273-.396.661-.396 1.163v5.542h-2.092V18.393h2.092zm-22.215.428v2.48h1.687v1.488H47.29v4.703c0 .605.287.907.86.907h.659v1.796h-.996c-.798 0-1.43-.231-1.897-.693-.467-.462-.7-1.086-.7-1.873v-4.84H44V21.3h1.214v-1.745l2.075-.735zm70.54 2.48v8.894h-2.075V21.3h2.074zm-16.025 1.778c-.99 0-1.484.622-1.484 1.865v1.607c0 1.243.495 1.865 1.484 1.865.968 0 1.451-.622 1.451-1.865v-1.607c0-1.243-.483-1.865-1.45-1.865zm-13.443 0c-.99 0-1.484.622-1.484 1.865v1.607c0 1.243.495 1.865 1.484 1.865.967 0 1.451-.622 1.451-1.865v-1.607c0-1.243-.484-1.865-1.45-1.865zm21.978 0c-.933 0-1.4.622-1.4 1.865v.82c0 1.244.45 1.865 1.35 1.865.472 0 .838-.16 1.096-.479.259-.32.388-.78.388-1.385v-.821c0-.605-.126-1.066-.38-1.386-.252-.319-.604-.479-1.054-.479zm-56.707-.068c-.495 0-.875.143-1.139.428-.264.285-.397.764-.397 1.436v.052h3.037v-.223c0-1.129-.5-1.693-1.501-1.693zm69.56 0c-.495 0-.874.143-1.138.428-.265.285-.397.764-.397 1.436v.052h3.037v-.223c0-1.129-.5-1.693-1.502-1.693zm-5.347-4.618v1.693h-2.125v-1.693h2.125zM61.29 5.805c1.114 0 1.969.265 2.565.795.595.53.894 1.315.894 2.352v5.85h-2.025v-.77c-.292.308-.593.53-.902.667-.31.137-.7.206-1.172.206-.9 0-1.597-.246-2.092-.736-.495-.49-.742-1.169-.742-2.035 0-.799.264-1.429.792-1.89.529-.462 1.265-.693 2.21-.693h1.856V8.85c0-.947-.467-1.42-1.4-1.42-.394 0-.706.1-.937.3-.23.199-.345.464-.345.795v.051h-1.94v-.068c0-.833.292-1.492.877-1.976.585-.485 1.372-.727 2.361-.727zm43.755 0c1.102 0 1.976.337 2.623 1.01.646.672.97 1.67.97 2.992v1.18h-5.128v.24c0 .661.146 1.135.438 1.42.293.285.709.427 1.249.427.416 0 .742-.088.978-.265.236-.176.366-.424.388-.744l.017-.051h1.99v.085c0 .844-.309 1.523-.927 2.036-.619.513-1.462.77-2.53.77-1.125 0-2.02-.328-2.683-.984-.663-.656-.995-1.668-.995-3.036V9.807c0-1.334.32-2.334.961-3.001.641-.667 1.524-1 2.649-1zm-19.803.103v5.2c0 .626.093 1.103.279 1.428.185.324.553.487 1.105.487.55 0 .919-.154 1.104-.462.186-.307.279-.792.279-1.454v-5.2h2.091v5.303c0 1.231-.286 2.155-.86 2.77-.573.617-1.445.925-2.614.925-2.317 0-3.475-1.232-3.475-3.695V5.908h2.091zm-7-.103c.653 0 1.23.111 1.73.334.5.222.888.53 1.163.923.276.394.414.835.414 1.326v.102h-1.94v-.05a.83.83 0 0 0-.363-.72c-.242-.17-.576-.256-1.004-.256-.427 0-.753.086-.978.257a.816.816 0 0 0-.337.684c0 .262.087.467.261.616.174.148.458.25.852.307l1.029.155c.877.125 1.535.399 1.974.82.438.422.658 1.004.658 1.745 0 .912-.327 1.616-.979 2.112-.652.497-1.501.745-2.547.745-1 0-1.805-.248-2.412-.745-.607-.496-.911-1.16-.911-1.992V12.1h1.957v.034c0 .33.132.59.396.778.264.188.61.282 1.037.282.461 0 .821-.082 1.08-.248.259-.165.388-.413.388-.744 0-.274-.096-.485-.287-.633-.19-.148-.512-.256-.961-.325l-.928-.154c-.877-.148-1.524-.422-1.94-.82-.416-.4-.624-.97-.624-1.711 0-.844.306-1.514.92-2.01.612-.496 1.397-.744 2.352-.744zM73.418 3v11.802h-2.042v-.821c-.483.616-1.169.924-2.058.924-.843 0-1.537-.306-2.083-.915-.545-.61-.818-1.531-.818-2.763V9.466c0-1.232.267-2.15.801-2.754.534-.605 1.229-.907 2.084-.907.877 0 1.557.337 2.04 1.01V3h2.076zm-20.09 2.805c.934 0 1.662.285 2.185.855.523.57.784 1.352.784 2.344v5.798h-2.091V9.26c0-.513-.127-.904-.38-1.171-.253-.268-.582-.403-.987-.403-.427 0-.767.14-1.02.42-.253.279-.38.647-.38 1.103v5.593h-2.092V9.26c0-.513-.126-.904-.38-1.171-.252-.268-.581-.403-.986-.403-.416 0-.753.137-1.012.411-.259.274-.388.661-.388 1.163v5.542h-2.092V5.908h2.041v.804c.259-.286.571-.508.937-.667.365-.16.745-.24 1.138-.24.979 0 1.726.37 2.244 1.112.674-.741 1.501-1.112 2.48-1.112zm45.374-2.377v2.48h1.687v1.488h-1.687v4.703c0 .605.286.907.86.907h.658v1.796h-.995c-.799 0-1.431-.231-1.898-.693-.467-.462-.7-1.086-.7-1.873v-4.84h-1.215V5.908h1.215V4.163l2.075-.735zm-4.622 2.48v8.894h-2.075V5.908h2.075zm-31.407 5.097h-1.518c-.878 0-1.316.359-1.316 1.077 0 .742.427 1.112 1.282 1.112.55 0 .947-.128 1.19-.385.24-.256.362-.647.362-1.171v-.633zm7.236-3.319c-.934 0-1.4.622-1.4 1.865v1.608c0 1.243.45 1.864 1.35 1.864.472 0 .837-.16 1.096-.479.258-.32.388-.781.388-1.385V9.55c0-.605-.127-1.066-.38-1.385-.253-.32-.604-.48-1.054-.48zm35.135-.068c-.495 0-.875.143-1.139.428-.264.285-.396.764-.396 1.437v.05h3.036v-.222c0-1.129-.5-1.693-1.501-1.693zM94.097 3v1.693H91.97V3h2.126z"/>
    </g>
</svg>
