<svg xmlns="http://www.w3.org/2000/svg" width="485" height="195" viewBox="0 0 485 195">
    <g fill="none" fill-rule="evenodd">
        <path fill="#B7CEFF" d="M453.562 177.365s.427 3.486.992 5.023c.567 1.538 3.642 5.087 2.342 8.497-1.408 3.697-7.555.134-10.063-.995-2.507-1.128-1.936-3.174-2.203-5.682-.268-2.507-1.491-2.574-1.039-4.337.45-1.763 3.193-5.137 3.193-5.137l6.778 2.631z"/>
        <path fill="#EEA886" d="M447.968 172.91s-1.574 2.203-1.53 2.263c.043.06 6.74 4.14 7.206 2.817.37-1.052.527-2.574.527-2.574l-6.203-2.506z"/>
        <path fill="#B7CEFF" d="M425.266 179.83s-2.042 1.79-3.878 4.544c-1.835 2.753-6.706 2.898-6.913 6.658-.209 3.757 6.621 3.872 10.207 2.649 3.586-1.223 4.127-4.893 6.296-5.812 2.169-.917 3.296-1.66 3.128-3.45-.167-1.793-1.367-4.701-1.367-4.701s-1.348.43-2.139.518c-.793.087-3.458.119-5.334-.406"/>
        <path fill="#E8E8E8" d="M449.846 78.015s-1.374 8.176-2.481 13.576c-.451 2.19-.855 3.924-1.108 4.47-.317.686-2.896 3.456-6.053 6.71-5.54 5.704-12.859 12.888-12.859 12.888l-2.862-5.434s6.502-7.624 10.91-12.711c2.039-2.353 3.63-4.164 3.922-4.425.92-.825 1.99-8.95 3.494-15.643 1.502-6.696 4.515-10.395 4.515-10.395l2.522 10.964z"/>
        <path fill="#EEA886" d="M440.204 102.77c-5.54 5.705-12.859 12.889-12.859 12.889l-2.862-5.434s6.501-7.623 10.909-12.71c1.351.662 3.83 2.243 4.812 5.256M425.587 177.325l-.321 2.505s3.556 1.256 7.474-.112l.08-2.226-7.233-.167z"/>
        <path fill="#E8E8E8" d="M476.062 114.553c.205.729-37.66 0-37.66 0s10.474-7.626 11.153-9.663c.68-2.037-2.668-14.263-3.104-18.24-.348-3.183-1.223-17.424.873-19.599 2.192-2.274 10.085-4.657 10.085-4.657l11.512.428s1.898.397 3.257 1.027c1.357.632 9.122 3.398 10.383 7.278 1.26 3.882-7.748 16.359-7.748 16.359l-.044 1.48c-.035 1.225-.087 3.088-.134 5.109-.06 2.616-.112 5.496-.112 7.6 0 4.949 1.337 12.152 1.54 12.878"/>
        <path fill="#303669" d="M476.064 114.555s5.15 7.568 5.223 12.733c.072 5.166-9.14 22.47-10.534 24.945-4.192 7.441-15.686 23.493-15.686 23.493s-1.981-.051-8.163-2.452c0 0 7.646-21.203 8.614-23.403 4.11-9.336 6.405-15.957 5.024-17.558-1.382-1.601-5.15-3.207-6.242-4.153-1.09-.945-20.098 3.593-22.09 4.11-5.157 1.337-2.806 10.315-1.665 14.34 1.909 6.731 3.578 31.046 3.578 31.046s-3.673 1.567-9.827.243c0 0-12.082-43.902-12.47-48.269-.386-4.365-.578-11.565 29.195-17.037l35.043 1.962z"/>
        <path fill="#EEA886" d="M460.569 37.38s-9.991-2.255-7.709 10.322c2.283 12.579 4.686 13.566 10.712 10.964 6.03-2.603 5.49-10.662 5.791-14.613.303-3.952-5.606-6.536-8.794-6.674"/>
        <path fill="#EEA886" d="M457.925 65.623s4.426 4.692 11.417.428c0 0-1.563-10.17-.74-15.123.824-4.954-9.123 7.674-9.123 7.674.13.069.216.542.236 1.215.018.57-.012 1.283-.103 2.015-.205 1.646-.717 3.386-1.687 3.79"/>
        <path fill="#3A3F47" d="M468.877 50.507s-.257-3.963-1.704-4.087c-1.447-.123-1.669 1.472-1.669 1.472l-1.462.276s.462-3.473-.983-4.079c-1.446-.608-9.36 1.911-10.52.892-1.161-1.02-.615-8.066 1.483-9.03 2.096-.963 7.89-3.124 12.133-.25 0 0 3.31-.378 3.798 2.293.492 2.671-.177 10.527-1.076 12.513"/>
        <path fill="#A77860" d="M459.612 61.832c7.213-2.225 7.757-6.571 7.765-6.638-2.376 4.083-7.662 4.623-7.662 4.623.018.569-.012 1.283-.103 2.015"/>
        <path fill="#EEA886" d="M472.296 63.905s-5.283 10.52-13.819 9.84c-8.534-.679-1.454-11.253-1.067-11.351.427-.108 8.754-2.182 14.886 1.51"/>
        <path fill="#E8E8E8" d="M434.07 114.02s26.15 3.226 41.994.535l-30.273-3.785s-.18.772-11.722 3.25"/>
        <path fill="#EEA886" d="M453.629 109.579l-1.948.988s.444 3.095 1.51 4.033l2.187-.558s-.456-3.395-1.749-4.463"/>
        <path fill="#E8E8E8" d="M483.89 103.24c-.39.451-5.531 2.52-11.34 4.758-7.934 3.058-16.885 5.95-16.885 5.95l-2.036-4.369s9.372-5.094 15.706-8.668c2.991-1.687 5.303-3.035 5.632-3.346 1.018-.97 1.282-2.526.533-5.24-.75-2.713-2.474-15.184-2.668-16.64-.194-1.454.484-5.336 4.122-5.53 3.637-.193 5.488.835 5.488.835s.914.379 1.592 9.208c.68 8.829.775 21.975-.145 23.042"/>
        <path fill="#B0B0B0" d="M474.769 88.966c-.035 1.225-.087 3.088-.134 5.109-3.55-8.704-1.498-15.651-1.464-15.768-.383 2.362 1.57 10.543 1.598 10.659M447.364 91.591c-.45 2.19-.854 3.924-1.107 4.47-1.211-5.87-.12-13.384-.12-13.384.164 3.589 1.227 8.914 1.227 8.914"/>
        <path fill="#EEA886" d="M472.55 107.998c-7.934 3.058-17.172 6.043-17.172 6.043l-1.75-4.462s9.372-5.095 15.706-8.668c0 0 2.305 1.123 3.216 7.087"/>
        <path fill="#444C94" d="M453.065 114.302l-37.17-.548 18.766 9.53z"/>
        <path fill="#303669" d="M434.66 123.285l18.405-7.13v-1.853l-19.858 7.164z"/>
        <path fill="#EEA886" d="M452.101 110.634s-2.322-.361-3.925-.736c-1.243-.289-4.33.11-5.117.907-.786.798-3.288 6.352-3.762 6.69-.472.34.243 1.125 1.074.73 0 0 .763 2.432 2.645 1.522 1.883-.91 3.16-2.898 4.147-3.247.985-.35 6.728-2.115 6.728-2.115s-.31-4.343-1.79-3.751"/>
        <path fill="#EEA886" d="M443.626 110.44s-1.492.722-1.88 1.043c-.39.32-1.97 1.503-2.351 1.78-.382.278.577 1.069 3.398-.153 2.822-1.222.833-2.67.833-2.67"/>
        <path fill="#303669" d="M434.66 123.285l-11.053-30.196-35.642.582 10.535 27.827z"/>
        <path fill="#518AFA" d="M412.202 106.448c1.087 2.175.758 4.544-.735 5.29-1.492.748-3.584-.41-4.672-2.586-1.087-2.174-.759-4.543.734-5.29 1.492-.748 3.584.41 4.673 2.586"/>
        <path fill="#EEA886" d="M465.534 46.214c.13-1.11 2.323-1.518 2.5.146.177 1.664-.995 4.584-1.83 4.297-.83-.287-.851-2.914-.67-4.443"/>
        <g>
            <path fill="#FAA146" d="M232.762 177.211c-1.677 1.194-3.137 1.74-5.674 2.694h-.001c-5.765 1.516-41.935 12.313-41.935 12.313-.096-.367-.147-.686-.36-1.1-1.35.539-2.74.889-3.622 1.164-1.347.42-11.981-.703-14.17-.282-2.188.42-5.233 1.683-7 0-1.179-1.123-.179-2.456 3-4 6.934-.554 10.934-.888 12-1 1.6-.168 3.813-2.464 4.823-2.128.319.106 1.73-.308 3.51-.923a29.29 29.29 0 0 1-.054-1.068l9.497-2.74-1.759-16.821s4.132-15.576 20.64-3.694c0 0 3.684 1.084 4.946 1.42.089.023.23.027.423.013 2.518-.19 13.34-3.464 17.25-3.464 4.21 0 5.556-.254 7.07.505 1.516.757 4.63 6.65 4.377 8.419-.253 1.767-10.87 9.206-12.96 10.692z"/>
            <path fill="#FAA146" d="M224 191c-1.768 1.684-4.813.42-7 0-2.188-.422-9.654 1.42-11 1-1.348-.421-3.615-.728-5.383-1.908-.142-.095-.468-.236-.945-.414l-2.675 1.93-37.163-11.834c-2.227-.61-3.994-1.54-5.17-2.562-1.937-1.684-12.71-8.925-12.962-10.694-.252-1.768 2.861-7.662 4.376-8.419 1.516-.758 2.862-.505 7.07-.505s16.413 3.789 17.675 3.451c.574-.153 1.762-.758 2.888-1.373 1.35-.738 2.61-1.488 2.61-1.488 18.075-8.072 20.088 5.136 20.088 5.136l-1.07 16.305s1.506.747 3.466 1.679l8.958 2.532-1.172.846c.507.165.865.24 1.011.19 1.01-.336 2.8.96 4.398 1.128 1.6.17 5.559 1.074 8 2 2.441.927 7.767.316 6 2-.155-.456-.821-.123-2 1z"/>
            <path fill="#5478B3" d="M173.711 159.673c1.247.086 9.669 4.966 11.668 6.133-3.037-1.587-14.557-4.76-14.557-4.76.575-.154 1.763-.76 2.89-1.373"/>
            <path fill="#0091FF" d="M217.026 161.058s-14.51 3.522-17.165 4.997c.12-.088 7.647-5.809 11.598-6.572 0 0 3.881 1.226 5.144 1.562.09.025.231.028.422.013h.001z"/>
            <path fill="#EEA886" d="M223 191c-1.768 1.684-.813.42-3 0-2.188-.422-11.654.42-13 0-.388-.122-1.615 1.026-2.151.867-1.33-.393-2.973-.935-4.232-1.775-.142-.095-.468-.236-.945-.414l6.726-4.856.193-.14c.507.165.865.24 1.011.19.553-.183 1.432-.09 2.377.059.783.123 1.296.993 2.021 1.069 1.6.17 1.559 2.074 4 3 2.441.927 9.767.316 8 2h-1z"/>
            <path fill="#FFF" d="M228.812 192.87c-1.768 1.685-6.144 1.01-8.332.591-2.188-.422-12.878-.758-14.224-1.179-.388-.121-.871-.256-1.407-.415h-.001c0-.002-.002-.002-.002-.002s2.943-2.911 1.552-7.043l.193-.14c.507.165.865.24 1.011.19 1.01-.336 3.114.253 4.713.421 1.6.17 10.52.422 12.962 1.348 2.44.927 5.302 4.546 3.535 6.23"/>
            <path fill="#E55353" d="M177.4 163.388c.02.045.016.08-.013.1-.168.125-.14.072.014-.1"/>
            <path fill="#0091FF" d="M213.626 150.48c-.826.938-4.089 3.012-7.026 4.72-.222-2.035-.56-5.239-.596-6.39-.056-1.74.672-6.735 1.57-8.644.898-1.908 1.516-7.128 1.516-7.128s7.433 10.103 8.612 11.17c1.178 1.066-1.288 3.104-4.076 6.271m-43.414 1.206c-2.104-2.525-5-4.054-4.272-5.176.73-1.123 6.903-11.787 6.903-11.787s3.198 7.015 4.096 10.664c.898 3.648.828 5.319.449 6.454-.34 1.018-.613 1.71-.919 4.742-2.516-1.72-5.293-3.739-6.257-4.897m55.831-7.983c-.14-.284-7.807-12.348-9.884-17.849-2.077-5.5-7.07-8.027-9.426-8.812-.841-.28-2.339-.769-3.92-1.28-2.846-.92-5.955-1.92-5.955-1.92h-9.82s-3.402 1.14-7.014 2.408l-.003.001c-3.33 1.169-6.835 2.444-8.02 3.037-2.469 1.234-6.62 10.046-7.463 11.057-.84 1.01-7.313 13.01-8.247 17.624-.725 3.583 20.53 14.076 21.11 15.42.674-.747 3.769-3.716 3.769-3.716s-.992-.623-2.388-1.542c5.694.262 19.607-.231 21.603-.13.402.02.838.008 1.287-.028-.002 0-.003.002-.003.002.617.45 4.601 3.97 4.601 3.97s9.82-4.079 14.336-8.643c6.413-6.483 6.143-8.167 5.437-9.599"/>
            <path fill="#EEA886" d="M193.118 86.844s7.68 1.21 6.51 13.228c-1.17 12.02-7.946 11.034-8.4 11.022-.452-.012-6.804.22-7.298-14.454 0 0-.217-10.852 9.188-9.796"/>
            <path fill="#EEA886" d="M199.747 96.678s.84-.898 1.149.011c.308.91-1.147 4.966-1.2 5.156 0 0-.153.354-.355.159-.202-.195.406-5.326.406-5.326M184.136 96.526s-.823-.914-1.149-.011c-.326.904 1.038 4.987 1.1 5.178 0 0 .147.356.352.166.205-.19-.303-5.333-.303-5.333"/>
            <path fill="#434343" d="M199.743 98.522l-1.1 1.469s.031-3.223-.145-3.728c-.176-.505-.447-2.05-.593-2.413-.148-.364-6.594-2.172-12.289.527 0 0 .25 2.318-.296 2.523-.545.207-.277 3.776-.277 3.776l-.905-1.02s-1.383-9.247-1.041-10.21c.342-.965 1.43-6.758 13.112-3.319 0 0 3.643-.771 4.373 1.743.732 2.517-.84 10.652-.84 10.652"/>
            <path fill="#B57433" d="M181.82 175.375s-11.755-7.047-16.89-8.154c-4.85-1.049-6.62-2.864-6.62-2.864s7.716 0 12.85 3.649c3.485 2.477 10.66 7.37 10.66 7.37M192.263 180.289s20.445-10.74 28.793-13.068c4.78-1.335 6.62-2.864 6.62-2.864s-12.64 1.236-20.326 5.866c-3.664 2.207-15.087 10.066-15.087 10.066"/>
            <path fill="#EEA886" d="M181.17 192.282c-.898.28-5.288-.48-13.17-2.282-3.489 1.79-5.822 2.123-7 1-1.768-1.684-.441-1.073 2-2 2.44-.926 10.401-1.832 12-2 1.599-.168 3.813-2.464 4.824-2.128.318.106 1.729-.307 3.51-.923.053 1.069 1.459 7.17 1.459 7.17-1.351.538-2.741.887-3.623 1.163z"/>
            <path fill="#FAA146" d="M192.263 190.1l20.099-5.95-3.974-1.214s-16.063 5.825-16.125 7.164"/>
            <path fill="#B57433" d="M192.263 190.1l9.406-2.87-6.521 3.789z"/>
            <path fill="#525252" d="M185.802 166.055l-.424-.25c.17.09.311.172.424.25"/>
            <path fill="#FFF" d="M181.17 192.282c-1.346.42-12.035.757-14.224 1.18-2.188.419-6.565 1.093-8.332-.591-1.768-1.684 1.095-5.303 3.535-6.23 2.44-.926 11.362-1.18 12.96-1.347 1.6-.169 3.704-.758 4.715-.422 0 0-2.7 4.126 1.346 7.41"/>
            <path fill="#525252" d="M174.526 164.357l-3.097-17.624 40.045-.925-2.58 17.343s-12.781 4.679-17.12 7.41c0 0-10.964-4.506-17.248-6.204"/>
            <path fill="#6E6E6E" d="M194.132 157.362c0 1.456-1.005 2.638-2.245 2.638-1.238 0-2.244-1.182-2.244-2.638 0-1.457 1.006-2.638 2.244-2.638 1.24 0 2.245 1.181 2.245 2.638"/>
            <path fill="#EEA886" d="M196.958 113.874a.366.366 0 0 0-.01-.032c-.48-1.07-.245-6.287-.245-6.287s-9.781-2.49-9.501-.587c.279 1.903-.843 7.102-.843 7.102l-5.017 1.718s5.345 14.359 11.49 12.506c6.144-1.851 8.463-13.024 8.463-13.024l-4.337-1.396z"/>
            <path fill="#A77860" d="M187.385 109.129s1.533 1.99 4.268 1.99c1.799 0 3.027-.444 4.818-2.191 0 0-.712 3.259-4.806 3.567 0 0-2.927.422-4.28-3.366"/>
        </g>
        <g>
            <path fill="#464240" d="M355.798.778s5.684-.595 7.733 4.896c2.047 5.49 3.976 7.289 4.217 10.174.975 11.666 6.422 9.027 4.89 15.752-1.533 6.725-2.593 7.744-2.593 7.744l-13.02-2.555-13.192.042s5.16-2.578 4.013-8.068c-1.15-5.491-4.013-14.49-2.395-20.62 1.616-6.13 6.95-6.896 10.347-7.365"/>
            <path fill="#EB4747" d="M352.202 181.053s-4.083 5.609-3.503 6.513c.58.903 5.037 1.032 7.746 0 2.712-1.033 2.777-7.718 4.003-10.59.514-1.202-.586-4.751-2.13-5.008-1.546-.258-3.358.553-3.358.553s1.583 4.086-2.758 8.532"/>
            <path fill="#EEA886" d="M354.96 172.52s-.322 2.649-.838 4.522c-.516 1.872-3.29 6.133-3.163 6.65.13.516 3.615.984 5.035-.347 1.419-1.332 2.516-5.188 2.646-7.523.13-2.332-.322-3.855-.322-3.855s-2.002-.867-3.358.554"/>
            <path fill="#EB4747" d="M360.448 176.977v5.97h-.775v-4.615zM362.884 181.053s-4.081 5.609-3.502 6.513c.581.903 5.036 1.032 7.747 0 2.711-1.033 2.775-7.718 4.002-10.59.513-1.202-.586-4.751-2.131-5.008-1.544-.258-3.356.553-3.356.553s1.58 4.086-2.76 8.532"/>
            <path fill="#EEA886" d="M365.644 172.52s-.322 2.649-.838 4.522c-.516 1.872-3.293 6.133-3.164 6.65.13.516 3.616.984 5.035-.347 1.419-1.332 2.517-5.188 2.647-7.523.13-2.332-.324-3.855-.324-3.855s-2.002-.867-3.356.554"/>
            <path fill="#EB4747" d="M371.13 176.977v5.97h-.773v-4.615z"/>
            <path fill="#EEA886" d="M344.698 79.56s-3.089 17.02-3.923 21.278c-.834 4.26-3.171 24.88-3.42 28.387-.253 3.507 7.613 20.373 8.105 21.537 8.23 19.475 9.179 23.882 9.179 23.882s2.702 1.693 3.951-.327c.38-.616-5.066-22.948-5.963-29.144-.834-5.762-3.006-14.66-2.42-16.682.584-2.023 5.926-29.89 6.928-31.06 1.002-1.168 2.504.668 3.088 3.257.585 2.588 1.836 24.964 2.586 27.803.752 2.838.168 12.44.585 17.282.418 4.843 2.156 27.447 2.156 27.447s3.362.602 3.695.063c.334-.538 3.246-25.105 3.33-30.865.083-5.762.172-13.707.333-16.198 1.547-23.873 4.468-26.996-.637-44.179C359.778 40 344.698 79.56 344.698 79.56"/>
            <path fill="#FAA146" d="M344.698 79.56s-3.089 17.02-3.923 21.278c-.834 4.26-3.171 24.88-3.42 28.387-.253 3.507 7.343 20.372 7.51 21.625.167 1.252 6.422 19.178 6.422 19.178s6.318-.107 8.04-1.745c.346-.33-5.803-16.914-6.7-23.11-.834-5.762-3.006-14.66-2.42-16.682.584-2.023 5.926-29.89 6.928-31.06 1.002-1.168 2.504.668 3.088 3.257.585 2.588 1.836 24.964 2.586 27.803.752 2.838.168 12.44.585 17.282.418 4.843-.462 22.05-.462 22.05s8.276.433 8.609-.105c.334-.537.95-19.54 1.034-25.3.083-5.762.172-13.707.333-16.198 1.547-23.873 4.468-26.996-.637-44.179C359.778 40 344.698 79.56 344.698 79.56"/>
            <path fill="#EB4747" d="M373.51 85.287c.482-.194-3.382-12.976-4.149-16.797-.69-3.445-3.045-6.601-.745-12.47 1.317-3.362 1.228-7.335 1.228-7.335s3.518 7.763 3.852 9.767c.334 2.004-12.159-1.642-12.331-1.365-.33.528-.695 3.91-.695 5.08 0 .966 18.134 5.252 20.28 1.453.61-1.077-3.33-21.693-5.87-24.438-4.173-4.51-15.135-8.35-15.135-8.35s-3.004-1.614-8.292.056c-5.285 1.67-12.685 6.79-13.966 8.126-1.279 1.337-6.399 21.467-6.846 24.074-.42 2.452-.254 7.612 5.342 6.952l15.107-3.46-.938-4.607-11.323.896c-2.311.395-1.203-1.634-.908-2.763.288-1.106 3.13-11.35 3.13-11.35-.165 2.838 1.976 12.157 3.09 15.387 1.111 3.228-1.35 20.504-1.516 22.395 0 0 9.095 7.473 30.685-1.25"/>
            <path fill="#EEA886" d="M362.412 31.777s-3.728 7.693-6.84 9.948c0 0-5.603-8.4-5.318-10.337 0 0 6.208-2.753 12.158.389M362.545 57.716s-1.727-.696-2.185-1.322c-.458-.628-1.99-1.001-3.122-.665-1.132.339-.505 5.207-.505 5.207l5.977.775-.165-3.995zM351.725 61.435s.574-3.146.436-3.727c-.138-.58 1.021-1.162 1.183.273a138.5 138.5 0 0 1 .247 2.347l-1.866 1.107z"/>
            <path fill="#51578C" d="M354.21 63.62l4.352-.179a1.047 1.047 0 0 0 1.005-1.035l.117-9.531a1.046 1.046 0 0 0-1.081-1.06l-5.21.17a1.05 1.05 0 0 0-1.012 1.129l.742 9.538c.042.563.523.99 1.087.967"/>
            <path fill="#EEA886" d="M351.629 61.69s-.082-.893 1.635-1.711c2.278-1.087 5.317-2.192 5.836-1.907.748.411.362.98-1.078 1.455-1.438.474-1.914.626-1.914.626s2.816-.268 3.448.068c.632.338.668 1.116.206 1.245-.462.126-1.55.204-1.55.204s1.194.045 1.314.525c.088.356.132.865-.999 1.075 0 0 .768.851-.383 1.397-1.15.545-3.232 1.044-4.278 1.214-2.175.358-7.086.092-7.086.092l2.017-3.413s1.123.087 1.894-.175c1.043-.357.938-.694.938-.694"/>
            <path fill="#EB4747" d="M350.353 61.973l.938 4.606-9.627 2.206-.372-6.095zM361.365 57.088s-.794 1.702-.695 5.079c0 0 5.97 2.18 10.607 2.687v-5.86l-9.912-1.906z"/>
            <path fill="#B33636" d="M351.29 66.58l-6.748 3.753c.047-.783.08-1.532.097-2.229l6.651-1.525zM369.03 67.079c-5.415-2.152-7.582-4.093-8.178-4.709a2.795 2.795 0 0 1-.182-.203l7.69 2.243c.191.93.443 1.805.67 2.669"/>
            <path fill="#EEA886" d="M356.547 3.99s7.528 1.087 6.426 12.202c-1.102 11.118-7.745 10.235-8.19 10.225-.444-.008-6.666.233-7.203-13.333 0 0-.25-10.03 8.967-9.094"/>
            <path fill="#EEA886" d="M359.891 24.446s-.464 5.783.648 7.514c1.114 1.734-.951 4.085-5.209 3.28-4.254-.803-4.006-3.216-4.006-3.216s1.191-3.57.842-6.427c-.348-2.855 7.725-1.151 7.725-1.151"/>
            <path fill="#464240" d="M355.686 8.02s3.518 3.698 5.152 5.571c1.632 1.873 1.82 5.491 1.82 5.491s2.754-3.363 1.602-7.28c-1.15-3.915-3.874-11.533-10.767-9.194-6.894 2.341-7.148 12.643-6.34 17.75 0 0 3.094-11.275 8.533-12.339"/>
            <path fill="#A77860" d="M352.72 25.914s3.207 1.517 6.328-.724c0 0-.866 1.792-3.165 2.046-2.296.255-3.163-1.322-3.163-1.322"/>
            <path fill="#464240" d="M351.627 27.93s-10.357 9.219-7.67 14.97c2.294 4.908 10.429 1.898 9.087-3.246-1.342-5.142-1.417-11.723-1.417-11.723"/>
            <path fill="#48484D" d="M354.447 53.823a.648.648 0 1 1-1.295 0 .648.648 0 0 1 1.295 0"/>
        </g>
        <g>
            <path fill="#5C5049" d="M74.346 181.856L66.79 131.58l1.454-.223 7.557 50.273zM65.118 181.856l-7.556-50.275 1.456-.223 7.556 50.273zM19.668 181.856l-1.456-.225 7.557-50.273 1.454.223z"/>
            <path fill="#FAB46C" d="M69.154 132.094l5.92-62.301s-10.353-1.354-16.609-1.02l-9.403 63.32h20.092z"/>
            <path fill="#FAB46C" d="M49.062 132.094h20.092v-3.167H49.062zM35.918 129.555l-3.141-59.37s26.203-2.845 42.296-.392l-39.155 59.762z"/>
            <path fill="#FCCCA2" d="M56.842 50.962s4.046-11.87-3.676-15.548c-7.72-3.681-14.276 1.64-15.514 4.516-1.238 2.878-.91 8.111.145 11.762 1.057 3.65.902 9.206-1.392 11.063-2.294 1.858-5.138 4.944-4.998 11.226.087 3.897 15.329-9.969 15.329-9.969l10.106-13.05z"/>
            <path fill="#D4C3BD" d="M46.54 178.684s-.24 8.388.957 8.892c1.196.505 5.729-2.412 7.727-5.297 2-2.884-2.505-9.598-3.243-13.3-.31-1.553-3.831-4.341-5.548-3.543-1.718.8-2.97 2.848-2.97 2.848s4.369 2.995 3.077 10.4"/>
            <path fill="#DE9673" d="M43.463 168.284s1.487 2.862 2.25 5.083c.766 2.221.909 8.373 1.39 8.8.48.426 4.28-1.49 4.786-3.79.507-2.3-1.033-6.896-2.499-9.314-1.466-2.416-2.957-3.627-2.957-3.627s-2.59.504-2.97 2.848"/>
            <path fill="#D4C3BD" d="M51.98 168.979l4.082 5.957-.774.529-3.154-4.605z"/>
            <path fill="#DE9673" d="M37.292 103.106s1.996 3.37 0 5.824c-1.996 2.455-15.412 9.196-15.314 13.09.098 3.894 2.556 9.989 3.439 11.535.883 1.546 4.141 7.961 5.835 11.717 1.692 3.755 11.48 21.718 13.395 25.767 1.913 4.05.735-16.195.735-16.195l-9.788-28.714 22.871-22.288s-2.77-6.164-21.173-.736"/>
            <path fill="#0091FF" d="M45.992 65.08s-6.345 1.408-8.864 2.882c-2.519 1.472-8.113 8.246-8.113 11.158 0 2.912 24.463 5.633 24.463 5.633l4.637 16.935s12.364-3.02 13.836-5.524c1.471-2.502-4.87-20.32-5.752-24.075-.883-3.753-5.51-6.286-10.66-7.008-5.152-.721-9.547 0-9.547 0"/>
            <path fill="#EEA886" d="M60.991 103.662s-.441 2.895.736 4.123c1.178 1.228 6.602 8.383 3.73 15.413-2.638 6.455-7.754 6.332-7.754 6.332h-7.915s2.297 11.62 1.556 19.275c-.743 7.658-4.234 25.143-4.307 26.025-.074.885-3.348 3.647-4.305 2.248 0 0-.088-10.529-.604-14.504-.514-3.977-2.707-19.879-3.37-22.234-.662-2.357-4.562-9.498-4.562-10.235 0-.736-3.811-12.262 4.507-15.207 8.316-2.946 11.256-11.174 22.288-11.236"/>
            <path fill="#E6D3CC" d="M38.791 185.198s-5.46 6.37-4.846 7.515c.614 1.147 5.97 1.73 9.34.744 3.366-.986 4.085-9.039 5.839-12.383.734-1.4-.25-5.784-2.087-6.244-1.838-.458-4.1.347-4.1.347s1.514 5.077-4.146 10.02"/>
            <path fill="#EEA886" d="M42.937 175.176s-.643 3.162-1.446 5.37c-.801 2.208-4.556 7.078-4.45 7.714.105.635 4.263 1.534 6.103.065 1.839-1.47 3.532-6.013 3.912-8.815.378-2.8-.02-4.68-.02-4.68s-2.33-1.236-4.1.346"/>
            <path fill="#E6D3CC" d="M49.124 181.074l-.572 7.2-.934-.075.442-5.564z"/>
            <path fill="#2F4563" d="M65.457 123.198c-2.49 6.54-7.753 6.332-7.753 6.332h-7.916s-3.303-5.235-11.389-6.135c-1.792-.198-3.82-.185-6.098.146l-.082.012c-10.744 1.592-8.67 5.537-8.637 5.64-.892-2.18-1.83-5.65-1.605-7.518 1.031-8.507 13.319-10.29 15.315-12.745 1.995-2.454 0-5.824 0-5.824 18.404-5.428 21.172.735 21.172.735.807-.111 2.875-1.303 3.755-1.308 0 0 .92 2.012 1.569 3.829.572 1.602 4.37 9.738 1.669 16.836"/>
            <path fill="#DED1C5" d="M57.82 76.36l2.723 25.328H24.7L21.977 76.36z"/>
            <path fill="#DED1C5" d="M57.409 101.687h5.987v-2.279h-5.987z"/>
            <path fill="#BC8551" d="M0 105.134h98.725v-3.446H-.001z"/>
            <path fill="#EEA886" d="M49.959 37.437s8.03 2.377 6.883 13.525c-1.148 11.148-6.392 10.574-6.883 10.656-.492.082-6.72.492-8.686-13.033-1.967-13.525 8.686-11.148 8.686-11.148"/>
            <path fill="#EEA886" d="M53.786 59.568s-.426 3.69.285 5.986c.71 2.296-9.354 2.358-9.348.47.006-2.143 1.03-3.935.065-7.608-.963-3.676 8.998 1.152 8.998 1.152"/>
            <path fill="#FCCCA2" d="M47.885 42.408s4.364 6.944 8.957 8.554c0 0 2.507-11.65-7.85-14.093-10.357-2.44-8.735 11.77-7.962 15.558 0 0 2.157-5.575 6.855-10.019"/>
            <path fill="#A77860" d="M45.98 60.038s3.177 3.312 7.24.345c0 0-.336 2.117-3.257 2.391-2.923.273-3.984-2.736-3.984-2.736"/>
            <path fill="#23344A" d="M42.033 41.362s2.298-4.45 6.175-4.648c3.879-.199 6.185 3.167 6.185 3.167s-1.514-3.79-6.18-3.79c-4.665 0-6.18 5.27-6.18 5.27"/>
            <path fill="#EEA886" d="M55.098 65.022s-.142 7.717-6.259 7.946c-6.118.23-4.844-7.4-4.844-7.4s4.475-1.814 11.103-.546"/>
            <path fill="#807066" d="M96.189 184.323h2.536v-79.189h-2.536zM0 184.323h2.535v-79.189H-.001z"/>
        </g>
        <g>
            <path fill="#EEA886" d="M299.392 35.15s7.854 2.307 7.374 12.988c-.483 10.68-7.374-12.988-7.374-12.988"/>
            <path fill="#EEA886" d="M298.669 35.15s.606.824-.153 6.14c-.756 5.313.68 7.536.85 9.748.172 2.21 2.765 16.494 2.836 17.126.07.632.417 8.234 1.43 10.252 1.01 2.017 8.444 13.45 8.544 14.02.1.573 3.61-1.99 3.61-1.99s-6.675-13.892-7.108-15.261c-.537-1.702-2.18-5.914-2.28-8.119-.248-5.388.24-17.904.051-20.63-.355-5.103-4.375-10.475-7.78-11.286"/>
            <path fill="#EEA987" d="M308.68 80.755s1.169 2.571 1.86 2.73c.69.16 1.514 1.016 2.107 1.28.592.262 2.455.405 2.957.892.204.2.99 1.914 1.447 2.273.46.36 1.477.977 1.162 1.363-.314.385-1.371.083-1.371.083s.399.354.229.78c-.333.83-.89.868-.89.868s.179.624-.047.933c-.495.682-1.036.702-1.036.702s-.046.481-.479.858c-.554.481-1.238.207-1.238.207s-.552.765-1.062.616c-.513-.148-.81-.53-1.174-.753-.365-.224-2.917-3.159-3.859-5.904-.943-2.747-2.577-4.978-2.577-4.978l3.97-1.95z"/>
            <path fill="#214361" d="M301.498 100.546l-13.94-17.194 28.681-23.27 13.94 17.192z"/>
            <path fill="#DB9C7C" d="M316.7 89.036s-2.224-2.472-3.332-2.424c-1.108.046-.352.983-.352.983s-.732-.938-1.52-.441c-.788.497.152 1.546.152 1.546s-.74-.563-1.324.217c-.582.782.39 1.476.39 1.476s-1.467-.216-1.152.982c.53 2.022 2.713 3.01 2.713 3.01s.611.17 1.12-.62c0 0 1.371.525 1.748-1.065 0 0 1.604-.37 1.094-1.651 0 0 1.69-.591.462-2.013"/>
            <path fill="#FCCCA2" d="M292.212 3.946s-11.36-.945-11.049 11.008c.312 11.952 2.205 13.751-.007 22.197-2.21 8.446 11.075-4.796 11.075-4.796l-.02-28.409z"/>
            <path fill="#EEA987" d="M279.835 77.808s-4.182 5.332-5.659 8.862c-1.476 3.527-3.936 11.26-3.608 17.248.328 5.99 2.295 17.23 1.721 19.773-.574 2.543-1.146 7.795-1.762 9.599-.616 1.805-3.075 7.055-3.323 12.47-.245 5.415 3.446 29.208 3.281 31.422-.164 2.217 4.184.904 4.184.904s1.475-21.496 2.295-25.188c.82-3.692 1.804-16.243 2.544-17.147.738-.902 2.756-10.255 2.443-11.732-.312-1.477 8.054-23.629 8.545-28.06.493-4.429 12.828-18.151 12.828-18.151s-10.777-4.122-23.489 0"/>
            <path fill="#EEA987" d="M299.797 77.808s.213 2.236.46 3.056c.246.82 5.906 21.742 6.48 29.783.574 8.04 2.049 14.86 2.295 16.577.246 1.718-.246 7.46-.738 8.938-.49 1.476 2.462 36.345 2.707 37.166.246.82-1.97 1.066-3.526.82-1.56-.246-9.432-25.598-8.94-29.863.493-4.267.983-13.364-.41-17.061-1.395-3.696-13.943-30.444-14.025-32.084-.082-1.642-5.43-29.905 15.697-17.332M274.59 175.47s.404 2.832.846 3.605c.442.773 1.654 4.708 2.207 5.444.552.736 1.765 6.253 0 6.915-1.765.662-5.921 1.766-7.318-.441a9.081 9.081 0 0 1-1.36-6.106c.22-1.693 1.897-9.459 1.875-10.227-.025-.768 3.75.81 3.75.81"/>
            <path fill="#FFF" d="M276.939 182.99s.188 4.288-3.047 4.288c-3.236 0-4.67-3.902-4.67-3.902s-1.102 1.916 0 5.999c1.103 4.082 5.7 3.236 6.73 3.088 1.029-.147 5.909-1.438.987-9.473M310.652 171.619s2.287 4.093 3.645 4.922c1.693 1.035 4.978 4.35 6.125 4.503 1.15.152 5.274.884 4.477 3.214-.654 1.908-10.492 1.636-11.602.68-1.11-.958-4.428-4.393-5.767-4.316-1.34.077-.84 4.953-.84 4.953h-1.455s-.51-4.745-.57-5.56c-.181-2.415 1.54-4.192 1.617-5.568.076-1.379.154-2.406.154-2.406l4.216-.422z"/>
            <path fill="#EEA987" d="M320.095 180.931s-3.245 1.12-5.74-.314c-2.496-1.435-7.287-3.614-8.98-3.63 0 0 .92-2.826.941-3.143.02-.316.12-1.803.12-1.803l4.19-.672s2.715 3.989 3.912 4.928c1.198.94 4.266 3.283 5.557 4.634"/>
            <path fill="#0091FF" d="M303.395 77.44s1.167 4.86 1.598 6.276c.43 1.414 3.195 23.37 3.875 37.104 0 0-16.546 6.276-39.305 5.23 0 0-.554-25.228 1.536-32.366 2.092-7.139 5.879-13.817 8.736-15.876 2.542-1.833 23.56-.369 23.56-.369"/>
            <path fill="#E8E8E8" d="M306.238 48.698c-.186 2.892-1.368 4.743-1.615 5.789-.246 1.046 0 3.446-.307 5.846-.308 2.4-1.23 13.844-.921 17.106.306 3.262-22.379 1.789-24.099.803 0 0 3.82-6.833 3.923-9.664.034-.972.615-4-.985-6.214-.844-1.17-2.411-4.891-3.974-7.613 0 0 .29-.564 0 0-.605-1.055-1.24-2.107-1.683-2.89-.578-1.023-.899-2.235-.899-2.235s-1.01-12.552 1.757-13.968c2.77-1.415 4.245-1.66 6.952-1.785 2.706-.123 4.492-.676 4.492-.676l6.333.676s2.236 1.048 3.836 1.172c1.599.122 3.553 3.598 4.52 6.115.798 2.076 2.854 4.646 2.67 7.538"/>
            <path fill="#EEA886" d="M280.875 34.348s-5.013.417-6.9 5.027c-1.885 4.61-1.727 9.29-2.135 10.993-.409 1.703-1.006 11.566-1.436 13.024-.43 1.457-1.905 8.217-2.235 13.68-.33 5.464.483 16.987.483 16.987l2.778-1.35s2.475-17.086 3.546-20.7c.918-3.089.918-8.343 1.433-10.24.514-1.897 3.662-13.313 4.17-14.471.779-1.773 4.605-13.007.296-12.95M291.1 5.157c2.816-.462 9.258.245 11.085 7.64 0 0 .004 2.05-.307 3.695-.308 1.646 1.652 6.17 1.307 6.444-.345.273-1.848.745-1.848.745s-1.065 5.31-2.868 5.472c-1.8.16-8.766-.466-12.697-6.47-3.934-6.004-6.04-15.665 5.329-17.526"/>
            <path fill="#EEA886" d="M295.774 27.094s-.138.743-.268 1.837c-.065.56-.13 1.21-.17 1.898-.112 1.906-.055 4.111.595 5.51 0 0-3.534 2.15-7.313-3.108 0 0 .373-6.526-1.799-9.994-2.172-3.468 8.955 3.857 8.955 3.857"/>
            <path fill="#FCCCA2" d="M302.185 12.797s-4.24 3.66-8.728 4.814c-4.488 1.155-6.864 6.198-6.864 6.198s-7.942-7.923-3.15-15.613c4.793-7.69 18.732-4.26 18.742 4.6"/>
            <path fill="#A77860" d="M295.506 28.931c-.066.56-.13 1.21-.17 1.898-3.958-1.921-6.14-4.555-6.14-4.555 2.326 1.666 6.31 2.657 6.31 2.657"/>
            <path fill="#FCCCA2" d="M292.633 17.874s-4.593 12.35-4.042 15.323c0 0-2.43-.419-6.757.905 0 0 2.092-22.032 10.799-16.228"/>
            <path fill="#EEA886" d="M287.058 33.595s1.512 9.262 7.11 8.217c5.597-1.048 1.352-7.833 1.352-7.833s-2.487-2.084-8.462-.384M271.498 92.24s.44 1.466 1.132 2.942c.336.721.841 5.573.86 6.204.015.529-.357.244-.562-.09-.118-.192-.562-1.85-.94-2.72-.319-.73-.565-.994-.678-.742-.115.254-.12 3.396.267 4.71.386 1.313.318 4.413-.417 4.021-.737-.391-2.797-5.832-2.818-7.937-.018-2.107.304-4.65.304-4.65l2.852-1.737z"/>
        </g>
    </g>
</svg>
