<?xml version="1.0" encoding="UTF-8"?>
<svg width="11px" height="13px" viewBox="0 0 11 13" version="1.1" xmlns="http://www.w3.org/2000/svg" xmlns:xlink="http://www.w3.org/1999/xlink">
    <!-- Generator: Sketch 59.1 (86144) - https://sketch.com -->
    <title>B</title>
    <desc>Created with Sketch.</desc>
    <g id="aaa" stroke="none" stroke-width="1" fill="none" fill-rule="evenodd">
        <g id="Madsuite-Landing" transform="translate(-185.000000, -1196.000000)" fill="#FFFFFF" fill-rule="nonzero">
            <g id="Service" transform="translate(0.000000, 954.000000)">
                <g id="Services">
                    <g id="Group-17" transform="translate(149.000000, 208.000000)">
                        <g id="Branding">
                            <g id="Group-15" transform="translate(19.000000, 18.000000)">
                                <path d="M19.826,21.202 L19.826,18.196 L22.472,18.196 C22.7240013,18.196 22.9669988,18.2169998 23.201,18.259 C23.4350012,18.3010002 23.6419991,18.3759995 23.822,18.484 C24.0020009,18.5920005 24.1459995,18.741999 24.254,18.934 C24.3620005,19.126001 24.416,19.3719985 24.416,19.672 C24.416,20.2120027 24.2540016,20.6019988 23.93,20.842 C23.6059984,21.0820012 23.1920025,21.202 22.688,21.202 L19.826,21.202 Z M17,16 L17,28.852 L23.228,28.852 C23.8040029,28.852 24.3649973,28.7800007 24.911,28.636 C25.4570027,28.4919993 25.9429979,28.2700015 26.369,27.97 C26.7950021,27.6699985 27.1339987,27.2830024 27.386,26.809 C27.6380013,26.3349976 27.764,25.7740032 27.764,25.126 C27.764,24.321996 27.569002,23.6350028 27.179,23.065 C26.7889981,22.4949971 26.198004,22.0960011 25.406,21.868 C25.9820029,21.5919986 26.4169985,21.2380022 26.711,20.806 C27.0050015,20.3739978 27.152,19.8340032 27.152,19.186 C27.152,18.585997 27.053001,18.082002 26.855,17.674 C26.656999,17.265998 26.3780018,16.9390012 26.018,16.693 C25.6579982,16.4469988 25.2260025,16.2700005 24.722,16.162 C24.2179975,16.0539995 23.6600031,16 23.048,16 L17,16 Z M19.826,26.656 L19.826,23.128 L22.904,23.128 C23.5160031,23.128 24.0079981,23.2689986 24.38,23.551 C24.7520019,23.8330014 24.938,24.3039967 24.938,24.964 C24.938,25.3000017 24.8810006,25.5759989 24.767,25.792 C24.6529994,26.0080011 24.500001,26.1789994 24.308,26.305 C24.115999,26.4310006 23.8940013,26.5209997 23.642,26.575 C23.3899987,26.6290003 23.1260014,26.656 22.85,26.656 L19.826,26.656 Z" id="B"></path>
                            </g>
                        </g>
                    </g>
                </g>
            </g>
        </g>
    </g>
</svg>