<svg xmlns="http://www.w3.org/2000/svg" xmlns:xlink="http://www.w3.org/1999/xlink" width="490" height="190" viewBox="0 0 490 190">
    <defs>
        <path id="a" d="M466.86.448H7.947c-19.45.38 4.913 4.384 6.526 20.72C16.088 37.508 194.71 41.223 253.22 43.452c43.714 1.664 50.765 24.057 70.128 24.125h.182c6.519-.024 14.441-2.574 25.61-9.272 44.576-26.737 116.49-22.28 135.172-40.953 3.824-3.822 5.351-6.786 5.362-9.086v-.053c-.038-7.096-14.588-7.809-20.43-7.809-1.466 0-2.385.045-2.385.045"/>
        <linearGradient id="b" x1="6.05%" x2="90.766%" y1="50.812%" y2="49.273%">
            <stop offset="0%" stop-color="#1860E8" stop-opacity=".076"/>
            <stop offset="100%" stop-color="#00A1FF" stop-opacity=".198"/>
        </linearGradient>
        <path id="d" d="M3.965.44C-9.064 6.687 15.578 17.48 7.081 32.53c-8.497 15.053 3.289 14.503 8.18 28.51 3.366 9.643-13.845 18.068-3.082 25.168 10.763 7.1 21.2 30.048 21.2 30.048 11.853 9.317 1.642-13.355 9.52-32.36 7.878-19.007-15.992-8.764-3.315-32.337C52.26 27.988 24.783 43.466 26.342 20.89c.487-7.07-2.026-6.819-5.47-6.567-2.841.208-6.315.416-9.26-3.486 0 0-3.3-10.585-6.846-10.585-.265 0-.533.06-.8.189"/>
        <linearGradient id="e" x1="-.001%" x2="99.999%" y1="50%" y2="50%">
            <stop offset="0%" stop-color="#3FD4E6"/>
            <stop offset="100%" stop-color="#5477FF"/>
        </linearGradient>
        <path id="g" d="M31.154 2.05c-1.061.575-1.935 1.482-2.86 2.441-2.177 2.261-4.887 5.074-11.742 5.106-3.908.018-6.049.554-7.157 1.79-1.26 1.401-1.021 3.499-.694 6.404.115 1.003.243 2.143.321 3.373.466 7.338-3.904 12.633-3.947 12.684-2.61 3.083-5.828 9.477-4.44 13.412.583 1.65 1.884 2.69 3.87 3.086.79.16 1.512.236 2.176.236 4.794-.002 6.55-3.944 8.87-9.154.486-1.094.988-2.222 1.558-3.414 2.942-6.157 5.548-7.171 9.866-8.85 1.056-.411 2.25-.878 3.563-1.461 6.186-2.757 4.988-6.817 3.931-10.402-.147-.501-.296-.999-.423-1.494-.543-2.107.502-3.164 2.083-4.765 1.177-1.19 2.64-2.67 3.768-5.007 1.234-2.558.605-3.93-.14-4.63-.677-.636-1.734-.947-2.993-.947-1.66 0-3.668.54-5.61 1.593M4.674 49.52c-1.671-.336-2.758-1.19-3.234-2.537-1.224-3.47 1.703-9.542 4.288-12.593.19-.224 4.633-5.594 4.145-13.28-.08-1.25-.21-2.4-.326-3.414-.303-2.687-.522-4.628.485-5.749.919-1.024 2.931-1.488 6.525-1.504 7.215-.035 10.065-2.991 12.353-5.368.916-.95 1.706-1.772 2.652-2.284 3.05-1.65 6.322-1.983 7.61-.773.977.919.515 2.494-.044 3.653-1.066 2.211-2.416 3.576-3.608 4.78-1.653 1.675-2.962 2.998-2.298 5.566.13.503.28 1.013.43 1.522 1.052 3.568 2.046 6.939-3.463 9.393-1.294.577-2.479 1.037-3.525 1.445-4.36 1.695-7.239 2.815-10.326 9.275-.573 1.202-1.078 2.337-1.567 3.435-2.33 5.232-3.85 8.65-8.086 8.65-.61 0-1.277-.07-2.011-.217"/>
        <linearGradient id="h" x1=".001%" x2="99.999%" y1="49.999%" y2="49.999%">
            <stop offset="0%" stop-color="#3FD4E6"/>
            <stop offset="100%" stop-color="#5477FF"/>
        </linearGradient>
        <path id="j" d="M20.706 6.616c-1.23 4.36-3.813 10.856-12.003 16.9C1.238 29.026.178 47.852.136 48.651l.84.043c.01-.19 1.077-19.216 8.222-24.489 8.4-6.2 11.053-12.875 12.316-17.356C22.82 2.225 29.921.9 29.991.888l-.145-.84c-.314.057-7.69 1.43-9.14 6.568"/>
        <linearGradient id="k" x1=".001%" x2="100.001%" y1="50%" y2="50%">
            <stop offset="0%" stop-color="#3FD4E6"/>
            <stop offset="100%" stop-color="#5477FF"/>
        </linearGradient>
        <path id="m" d="M22.348 16.854C20.1 24.512-2.67 20.195 6.888 39.37c9.556 19.175-12.087 6.413-5.622 23.147 6.465 16.73.562 34.626 7.59 30.075 7.026-4.552 3.948-25.623 11.255-28.127 7.309-2.503 8.502-5.423 1.266-12.23-7.236-6.807 18.96-13.564 12.495-27.308-6.464-13.743 1.09-22.109-5.06-24.236a3.528 3.528 0 0 0-1.15-.215c-4.018-.002-3.243 9.33-5.314 16.38"/>
        <linearGradient id="n" x1=".001%" x2="99.999%" y1="50%" y2="50%">
            <stop offset="0%" stop-color="#3FD4E6"/>
            <stop offset="100%" stop-color="#5477FF"/>
        </linearGradient>
        <path id="p" d="M.615.665l7.69 29.448h17.184L33.178.665z"/>
        <linearGradient id="q" x1=".001%" x2="99.999%" y1="50.001%" y2="50.001%">
            <stop offset="0%" stop-color="#FF933F"/>
            <stop offset="100%" stop-color="#FFCD44"/>
        </linearGradient>
        <path id="s" d="M.615.665l7.69 29.448h7.946C16.25 3.873 33.178.665 33.178.665H.615z"/>
        <linearGradient id="t" x1=".001%" x2="99.999%" y1="50.001%" y2="50.001%">
            <stop offset="0%" stop-color="#C87231"/>
            <stop offset="100%" stop-color="#FFCD44"/>
        </linearGradient>
    </defs>
    <g fill="none" fill-rule="evenodd">
        <g transform="translate(0 121.705)">
            <mask id="c" fill="#fff">
                <use xlink:href="#a"/>
            </mask>
            <path fill="url(#b)" d="M466.86.448H7.947c-19.45.38 4.913 4.384 6.526 20.72C16.088 37.508 194.71 41.223 253.22 43.452c43.714 1.664 50.765 24.057 70.128 24.125h.182c6.519-.024 14.441-2.574 25.61-9.272 44.576-26.737 116.49-22.28 135.172-40.953 3.824-3.822 5.351-6.786 5.362-9.086v-.053c-.038-7.096-14.588-7.809-20.43-7.809-1.466 0-2.385.045-2.385.045" mask="url(#c)"/>
        </g>
        <g transform="translate(92.75)">
            <mask id="f" fill="#fff">
                <use xlink:href="#d"/>
            </mask>
            <path fill="url(#e)" d="M3.965.44C-9.064 6.687 15.578 17.48 7.081 32.53c-8.497 15.053 3.289 14.503 8.18 28.51 3.366 9.643-13.845 18.068-3.082 25.168 10.763 7.1 21.2 30.048 21.2 30.048 11.853 9.317 1.642-13.355 9.52-32.36 7.878-19.007-15.992-8.764-3.315-32.337C52.26 27.988 24.783 43.466 26.342 20.89c.487-7.07-2.026-6.819-5.47-6.567-2.841.208-6.315.416-9.26-3.486 0 0-3.3-10.585-6.846-10.585-.265 0-.533.06-.8.189" mask="url(#f)"/>
            <path fill="#FFF" d="M37.142 107.696c-5.084-3.612-11.032-28.783-11.387-43.776-.182-7.68-2.428-10.88-4.411-13.703-1.894-2.698-3.531-5.028-2.578-10.379 1.822-10.226-2.968-14.64-3.016-14.683l.554-.639c.214.188 5.2 4.74 3.29 15.472-.892 5 .577 7.091 2.436 9.738 1.95 2.777 4.378 6.235 4.565 14.173.382 16.09 6.463 39.856 11.03 43.103l-.483.694z"/>
        </g>
        <g transform="translate(125.125 58.664)">
            <mask id="i" fill="#fff">
                <use xlink:href="#g"/>
            </mask>
            <path fill="url(#h)" d="M31.154 2.05c-1.061.575-1.935 1.482-2.86 2.441-2.177 2.261-4.887 5.074-11.742 5.106-3.908.018-6.049.554-7.157 1.79-1.26 1.401-1.021 3.499-.694 6.404.115 1.003.243 2.143.321 3.373.466 7.338-3.904 12.633-3.947 12.684-2.61 3.083-5.828 9.477-4.44 13.412.583 1.65 1.884 2.69 3.87 3.086.79.16 1.512.236 2.176.236 4.794-.002 6.55-3.944 8.87-9.154.486-1.094.988-2.222 1.558-3.414 2.942-6.157 5.548-7.171 9.866-8.85 1.056-.411 2.25-.878 3.563-1.461 6.186-2.757 4.988-6.817 3.931-10.402-.147-.501-.296-.999-.423-1.494-.543-2.107.502-3.164 2.083-4.765 1.177-1.19 2.64-2.67 3.768-5.007 1.234-2.558.605-3.93-.14-4.63-.677-.636-1.734-.947-2.993-.947-1.66 0-3.668.54-5.61 1.593M4.674 49.52c-1.671-.336-2.758-1.19-3.234-2.537-1.224-3.47 1.703-9.542 4.288-12.593.19-.224 4.633-5.594 4.145-13.28-.08-1.25-.21-2.4-.326-3.414-.303-2.687-.522-4.628.485-5.749.919-1.024 2.931-1.488 6.525-1.504 7.215-.035 10.065-2.991 12.353-5.368.916-.95 1.706-1.772 2.652-2.284 3.05-1.65 6.322-1.983 7.61-.773.977.919.515 2.494-.044 3.653-1.066 2.211-2.416 3.576-3.608 4.78-1.653 1.675-2.962 2.998-2.298 5.566.13.503.28 1.013.43 1.522 1.052 3.568 2.046 6.939-3.463 9.393-1.294.577-2.479 1.037-3.525 1.445-4.36 1.695-7.239 2.815-10.326 9.275-.573 1.202-1.078 2.337-1.567 3.435-2.33 5.232-3.85 8.65-8.086 8.65-.61 0-1.277-.07-2.011-.217" mask="url(#i)"/>
            <g transform="translate(3.5 7.005)">
                <mask id="l" fill="#fff">
                    <use xlink:href="#j"/>
                </mask>
                <path fill="url(#k)" d="M20.706 6.616c-1.23 4.36-3.813 10.856-12.003 16.9C1.238 29.026.178 47.852.136 48.651l.84.043c.01-.19 1.077-19.216 8.222-24.489 8.4-6.2 11.053-12.875 12.316-17.356C22.82 2.225 29.921.9 29.991.888l-.145-.84c-.314.057-7.69 1.43-9.14 6.568" mask="url(#l)"/>
            </g>
        </g>
        <g transform="translate(118.125 19.263)">
            <mask id="o" fill="#fff">
                <use xlink:href="#m"/>
            </mask>
            <path fill="url(#n)" d="M22.348 16.854C20.1 24.512-2.67 20.195 6.888 39.37c9.556 19.175-12.087 6.413-5.622 23.147 6.465 16.73.562 34.626 7.59 30.075 7.026-4.552 3.948-25.623 11.255-28.127 7.309-2.503 8.502-5.423 1.266-12.23-7.236-6.807 18.96-13.564 12.495-27.308-6.464-13.743 1.09-22.109-5.06-24.236a3.528 3.528 0 0 0-1.15-.215c-4.018-.002-3.243 9.33-5.314 16.38" mask="url(#o)"/>
            <path fill="#FFF" d="M12.09 91.935c-.677-2.879-6.45-28.208-1.064-31.27 4.748-2.697 4.631-13.193 3.89-23.105-.655-8.773 10.57-12.873 11.049-13.044l.285.806c-.11.04-11.091 4.053-10.484 12.175.76 10.178.842 20.979-4.32 23.912-4.09 2.326-.324 22.682 1.472 30.33l-.829.196z" mask="url(#o)"/>
        </g>
        <g transform="translate(109.375 100.691)">
            <mask id="r" fill="#fff">
                <use xlink:href="#p"/>
            </mask>
            <path fill="url(#q)" d="M.615.665l7.69 29.448h17.184L33.178.665z" mask="url(#r)"/>
        </g>
        <g transform="translate(109.375 100.691)">
            <mask id="u" fill="#fff">
                <use xlink:href="#s"/>
            </mask>
            <path fill="url(#t)" d="M.615.665l7.69 29.448h7.946C16.25 3.873 33.178.665 33.178.665H.615z" mask="url(#u)"/>
        </g>
        <path fill="#0091FF" d="M482.426 60.204c-.018 45.428-1.294 54.32-12.727 64.499-4.478 3.986-12.713 12.266-36.474 16.389-7.132 1.239-15.663 2.101-25.909 2.362-4.181.106-8.018-.045-11.528-.427-2.943-.317-5.657-.798-8.15-1.42-26.114-6.53-28.064-28.853-16.642-47.631 3.025-4.974 6.482-9.545 10.105-13.807 5.594-6.583 11.59-12.43 17.02-17.888 5.006-5.029 9.532-9.728 12.821-14.367 1.388-1.955 2.555-3.899 3.446-5.853a97.72 97.72 0 0 1 2.796-5.626c1.372-2.55 2.769-4.88 4.117-6.965a101.112 101.112 0 0 1 3.087-4.514c3.334-4.598 5.812-7.18 5.812-7.18s.308-.144.88-.38c.302-.127.682-.28 1.129-.45a62.537 62.537 0 0 1 1.196-.44c.2-.07.41-.144.623-.217.254-.087.517-.174.791-.263.161-.052.325-.105.493-.157l.3-.093.117-.036c3.39-1.037 8.04-2.117 13.101-2.297 15.007-.534 33.614 6.849 33.596 46.76"/>
    </g>
</svg>
