<svg xmlns="http://www.w3.org/2000/svg" xmlns:xlink="http://www.w3.org/1999/xlink" width="501" height="132" viewBox="0 0 501 132">
    <defs>
        <path id="a" d="M0 .576h54.645v47.932H0z"/>
        <path id="c" d="M.875 0h26.72V26.66H.874z"/>
    </defs>
    <g fill="none" fill-rule="evenodd">
        <path fill="#0091FF" d="M256.908 95.83l-36.276.167.121 26.233.026 5.526 5.513-5.552 30.737-.141z"/>
        <text fill="#FFF" font-family="WorkSans-SemiBold, Work Sans" font-size="15" font-weight="500" transform="translate(220.632 95.83)">
            <tspan x="10.086" y="17.491">&lt;/</tspan> <tspan x="13.514" y="35.491">&gt;</tspan>
        </text>
        <g fill-rule="nonzero">
            <path fill="#3ABCA7" d="M278.141 57.683l-24.947 8.106c-3.267 1.061-6.79-.77-7.87-4.092l-8.239-25.36c-1.08-3.32.695-6.873 3.962-7.935l24.946-8.105c3.267-1.062 6.79.77 7.87 4.091l8.24 25.36c1.079 3.32-.695 6.874-3.962 7.935z"/>
            <path fill="#FFF" d="M269.521 30.279l-12.73 4.136a.75.75 0 0 1-.941-.49.75.75 0 0 1 .473-.948l12.731-4.136a.75.75 0 0 1 .941.489.75.75 0 0 1-.474.949zM272.792 40.344l-12.73 4.137a.75.75 0 0 1-.942-.49.75.75 0 0 1 .474-.948l12.73-4.137a.75.75 0 0 1 .942.49.75.75 0 0 1-.474.948zM276.062 50.41l-12.73 4.136a.75.75 0 0 1-.941-.489.75.75 0 0 1 .473-.949l12.731-4.136a.75.75 0 0 1 .941.489.75.75 0 0 1-.474.949zM247.64 39.773a.733.733 0 0 1-.471-.006l-4.034-1.415a.764.764 0 0 1-.468-.96.736.736 0 0 1 .943-.465l3.373 1.182 2.716-6.676a.735.735 0 0 1 .972-.401c.38.161.562.604.406.988l-2.981 7.327a.738.738 0 0 1-.456.426zM250.91 49.838a.733.733 0 0 1-.47-.005l-4.035-1.415a.764.764 0 0 1-.468-.96.736.736 0 0 1 .943-.466l3.373 1.183 2.717-6.676a.735.735 0 0 1 .972-.402c.38.162.562.604.405.988l-2.98 7.328a.738.738 0 0 1-.457.425zM254.414 60.622a.733.733 0 0 1-.47-.006l-4.035-1.415a.764.764 0 0 1-.468-.96.736.736 0 0 1 .943-.465l3.373 1.182 2.717-6.675a.735.735 0 0 1 .972-.401c.38.162.562.604.405.988l-2.98 7.327a.738.738 0 0 1-.457.425z"/>
            <g transform="rotate(-18 276.116 -812.392)">
                <ellipse cx="9.197" cy="9.172" fill="#26B999" rx="8.829" ry="9.172"/>
                <path fill="#FFF" d="M14.031 4.723a.718.718 0 0 0-1.024.191L8.89 11.06 5.984 8.582a.716.716 0 0 0-1.035.106.783.783 0 0 0 .103 1.075l3.52 3.003a.721.721 0 0 0 .568.167.736.736 0 0 0 .503-.32l4.572-6.825a.785.785 0 0 0-.184-1.065z"/>
            </g>
        </g>
        <path fill="#FFCA55" d="M417.309 16.921l-51.578.237.171 37.3.037 7.855 7.837-7.892 43.704-.202z"/>
        <path fill="#FFF" d="M395.548 37.168a3.933 3.933 0 0 1-3.926 3.942 3.935 3.935 0 0 1-3.951-3.918 3.935 3.935 0 0 1 3.927-3.942 3.933 3.933 0 0 1 3.95 3.918M408.488 37.127a3.936 3.936 0 0 1-3.928 3.943 3.935 3.935 0 0 1-3.951-3.918 3.934 3.934 0 0 1 3.925-3.943 3.937 3.937 0 0 1 3.954 3.918M382.91 37.208a3.937 3.937 0 0 1-3.93 3.943 3.935 3.935 0 0 1-3.95-3.919 3.935 3.935 0 0 1 3.927-3.942 3.936 3.936 0 0 1 3.952 3.918"/>
        <path fill="#0091FF" d="M500.638 44.452l-45.382.21.152 32.817.03 6.913 6.898-6.945 38.454-.177z"/>
        <g fill="#FFF" fill-rule="nonzero">
            <path d="M475.186 66.828a.419.419 0 0 1-.268-.097l-2.676-2.218a.398.398 0 0 1 0-.613l2.676-2.218a.422.422 0 0 1 .583.046.395.395 0 0 1-.047.567l-2.306 1.912 2.306 1.911a.395.395 0 0 1 .047.568.418.418 0 0 1-.315.142zM480.393 66.828a.417.417 0 0 1-.315-.142.395.395 0 0 1 .046-.568l2.307-1.911-2.307-1.912a.395.395 0 0 1-.046-.567c.148-.17.409-.19.583-.046l2.676 2.218a.398.398 0 0 1 0 .613l-2.676 2.218a.419.419 0 0 1-.268.097zM476.912 68.575a.466.466 0 0 1-.09-.01.414.414 0 0 1-.337-.489l1.756-7.909a.436.436 0 0 1 .516-.319.414.414 0 0 1 .337.49l-1.757 7.909a.43.43 0 0 1-.425.328z"/>
            <path d="M487.674 72.069h-19.77c-1.552 0-2.815-1.23-2.815-2.744V52.974c0-1.513 1.263-2.744 2.816-2.744h19.769c1.552 0 2.816 1.23 2.816 2.744v16.351c0 1.513-1.264 2.744-2.816 2.744zm-19.77-21.022c-1.09 0-1.976.864-1.976 1.927v16.351c0 1.062.887 1.927 1.977 1.927h19.769c1.09 0 1.977-.865 1.977-1.927V52.974c0-1.063-.887-1.927-1.977-1.927h-19.77z"/>
            <path d="M490.07 57.218H465.51a.428.428 0 0 1-.42-.436c0-.241.188-.437.42-.437h24.561c.232 0 .42.196.42.437a.428.428 0 0 1-.42.436zM472.534 54.598a1.314 1.314 0 0 1-1.314-1.31 1.314 1.314 0 0 1 2.628 0c0 .722-.59 1.31-1.314 1.31zm0-1.793a.483.483 0 0 0-.483.482.483.483 0 0 0 .967 0 .483.483 0 0 0-.484-.482zM468.155 54.598a1.314 1.314 0 0 1-1.314-1.31 1.314 1.314 0 0 1 2.628 0c0 .722-.59 1.31-1.314 1.31zm0-1.793a.484.484 0 0 0-.484.482.483.483 0 0 0 .967 0 .483.483 0 0 0-.483-.482zM476.913 54.598a1.314 1.314 0 0 1-1.313-1.31 1.314 1.314 0 0 1 2.627 0c0 .722-.59 1.31-1.314 1.31zm0-1.793a.483.483 0 1 0 0 .967.483.483 0 0 0 0-.967z"/>
        </g>
        <g transform="translate(0 43.752)">
            <mask id="b" fill="#fff">
                <use xlink:href="#a"/>
            </mask>
            <path fill="#0091FF" d="M.181.576l54.464.251-.181 39.385-.04 8.296-8.276-8.335L0 39.962z" mask="url(#b)"/>
            <g fill="#FFF" fill-rule="nonzero" mask="url(#b)">
                <g transform="translate(17.517 10.41)">
                    <ellipse cx="12.796" cy="9.172" rx="1" ry="1"/>
                    <path d="M12.907 10.487c-.21-.03-.405.105-.436.3-.105.66-.703 1.206-1.6 1.462-.96.274-2.29.183-3.102-.64a.404.404 0 0 0-.542-.022.34.34 0 0 0-.023.504c.47.477 1.108.802 1.846.94a4.553 4.553 0 0 0 2.046-.099c1.187-.34 1.985-1.102 2.134-2.04.03-.195-.114-.376-.323-.405z"/>
                    <path d="M18.173 7.147c-.69-.79-1.64-1.303-2.786-1.51 1.097-.732 2.042-1.46 2.717-2.096 1.028-.97 1.372-1.651 1.084-2.145-.32-.549-1.244-.545-2.91.012-1.406.471-3.159 1.29-4.934 2.304-.307.175-.61.355-.908.536-.22-.617-.075-1.32.411-1.93.365-.458.446-1.039.213-1.516-.245-.5-.782-.8-1.437-.802h-.018C7.291 0 5.029.904 3.233 2.544 1.436 4.187.335 6.361.134 8.667c-.241 2.777.656 5.417 2.526 7.434a9.77 9.77 0 0 0 7.144 3.117c1.455 0 2.822-.263 4.06-.783a9.143 9.143 0 0 0 2.992-2.018 8.91 8.91 0 0 0 1.85-2.74 7.875 7.875 0 0 0 .658-2.965c.02-1.414-.391-2.647-1.191-3.565zM10.48 5.104c.402-.25.82-.5 1.243-.742 1.641-.938 3.276-1.71 4.603-2.175 1.46-.512 2.058-.479 2.197-.413-.012.088-.121.476-1.08 1.35-.8.73-1.968 1.587-3.29 2.415a37.237 37.237 0 0 1-3.099 1.74A5.616 5.616 0 0 0 9.98 5.424c.164-.107.332-.214.501-.32zm-.113 2.508c-1.07.503-2.053.886-2.838 1.108a1.868 1.868 0 0 0-.572-.998c.587-.561 1.414-1.211 2.387-1.876a4.897 4.897 0 0 1 1.023 1.766zm8.239 3.09c-.054 3.734-3.435 7.766-8.802 7.766a9.007 9.007 0 0 1-6.586-2.875C1.494 13.733.668 11.296.89 8.732 1.273 4.33 5.183.75 9.605.75h.017c.363 0 .638.138.755.378.107.22.06.49-.125.723-.684.858-.855 1.913-.469 2.802-.203.13-.403.26-.596.39l-.003.001c-1.206.805-2.224 1.607-2.901 2.28a1.903 1.903 0 0 0-1.559.152c-.788.45-1.822 2.55-2.022 2.966a.372.372 0 0 0 .015.348.38.38 0 0 0 .297.187c.21.016.805.059 1.468.059.804 0 1.706-.063 2.138-.31.468-.267.793-.714.905-1.227.93-.242 2.145-.714 3.461-1.349a36.561 36.561 0 0 0 3.388-1.863h.007c3.16.09 4.255 2.339 4.225 4.413zM6.808 9.171a1.123 1.123 0 0 1-.567.905c-.358.205-1.59.233-2.602.187.465-.89 1.106-1.932 1.465-2.137a1.144 1.144 0 0 1 1.554.412c.112.193.164.412.15.634z"/>
                    <path d="M6.665 2.62c-.725 0-1.314.589-1.314 1.311a1.314 1.314 0 0 0 2.628 0c0-.722-.59-1.31-1.314-1.31zm0 1.966a.657.657 0 0 1-.657-.655.657.657 0 0 1 1.314 0 .657.657 0 0 1-.657.655zM4.913 12.23c-.724 0-1.314.588-1.314 1.31a1.314 1.314 0 0 0 2.628 0c0-.722-.59-1.31-1.314-1.31zm0 1.965a.657.657 0 0 1-.657-.655.657.657 0 0 1 1.314 0 .657.657 0 0 1-.657.655zM8.417 14.85c-.725 0-1.314.588-1.314 1.31a1.314 1.314 0 0 0 2.627 0c0-.722-.589-1.31-1.313-1.31zm0 1.966a.657.657 0 0 1-.657-.655.657.657 0 0 1 1.314 0 .657.657 0 0 1-.657.655zM12.796 13.977c-.724 0-1.314.588-1.314 1.31a1.314 1.314 0 0 0 2.628 0c0-.722-.59-1.31-1.314-1.31zm0 1.966a.657.657 0 0 1-.657-.656.657.657 0 0 1 1.314 0 .657.657 0 0 1-.657.656zM16.3 10.483c-.725 0-1.314.588-1.314 1.31a1.314 1.314 0 0 0 2.627 0c0-.722-.59-1.31-1.314-1.31zm0 1.965a.657.657 0 0 1-.657-.655.657.657 0 0 1 1.313 0 .657.657 0 0 1-.657.655z"/>
                </g>
            </g>
        </g>
        <path fill="#FFCA55" d="M188.58 99.941a3.595 3.595 0 0 1-2.134-4.618 3.608 3.608 0 0 1 4.63-2.13 3.595 3.595 0 0 1 2.134 4.618 3.606 3.606 0 0 1-4.63 2.13m6.677-1.376a5.77 5.77 0 0 0-3.426-7.414 5.789 5.789 0 0 0-7.43 3.419s-.12.23-.236.814c-.04.19-.07.382-.091.573-.228 1.769-.25 5.48 1.354 12.51 5.797-4.305 8.194-7.14 9.172-8.634.11-.16.211-.325.305-.498.292-.516.352-.77.352-.77"/>
        <g transform="translate(428.985 .32)">
            <path fill="#44D7B6" d="M14.484 18.013l-6.539-2.835a1.054 1.054 0 0 1-.548-1.389c.233-.535.856-.78 1.392-.547l4.624 2.004 3.338-7.382a1.06 1.06 0 0 1 1.931.869l-4.198 9.28z"/>
            <mask id="d" fill="#fff">
                <use xlink:href="#c"/>
            </mask>
            <path fill="#44D7B6" d="M7.648 3.978C2.48 7.602 1.23 14.744 4.862 19.9c3.63 5.157 10.79 6.403 15.959 2.78 5.168-3.623 6.417-10.765 2.786-15.922-3.633-5.157-10.791-6.403-15.96-2.78m14.271 20.261C15.888 28.466 7.536 27.01 3.3 20.996-.937 14.98.521 6.646 6.551 2.42 12.58-1.808 20.932-.352 25.168 5.664c4.238 6.015 2.779 14.348-3.25 18.575" mask="url(#d)"/>
        </g>
        <g>
            <path fill="#FFC655" d="M173.424 78.632l-17.396-3.544 2.432-11.884 17.396 3.545z"/>
            <path fill="#FFBC55" d="M156.028 75.088l10.057-4.87 7.34 8.414z"/>
            <path fill="#FFA655" d="M175.855 66.749l-10.212 5.631-7.183-9.175z"/>
        </g>
        <path fill="#EB4747" d="M416.246 71.704c-4.558-.047-6.126 4.047-6.126 4.047s-3.792-2.212-7.315.67c-3.522 2.884-1.713 5.707-1.713 5.707 2.486 6.051 14.492 9.113 14.492 9.113s7.439-9.889 5.58-16.16c0 0-.363-3.331-4.918-3.377"/>
        <g fill="#FFD255">
            <path d="M99.158 49.145c-3.887 1.253-6.026 5.428-4.77 9.307a7.394 7.394 0 0 0 5.056 4.844l.092.025.064.07c.902.984 2.148 2.505 2.96 4.149l.01.023c.252.627.782 1.101 1.493 1.338.73.243 1.558.205 2.333-.105 1.582-.633 2.44-2.217 1.912-3.53l-.005-.012-.004-.012c-.426-1.344-.671-2.963-.73-4.81l-.004-.105.058-.087a7.346 7.346 0 0 0 .862-6.336c-1.256-3.877-5.44-6.012-9.327-4.759m7.197 20.366c-.836.27-1.714.276-2.502.014-.892-.296-1.564-.902-1.891-1.705-.76-1.534-1.92-2.965-2.787-3.917a8.05 8.05 0 0 1-5.415-5.25c-1.368-4.222.962-8.77 5.195-10.135 4.233-1.364 8.79.96 10.158 5.183a7.997 7.997 0 0 1-.88 6.813c.062 1.737.295 3.258.691 4.518.655 1.648-.366 3.61-2.281 4.375a4.077 4.077 0 0 1-.288.104"/>
            <path d="M103.929 67.535l-4.308-7.72 2.271.708.574-1.594 1.358.721 1.036-1.987 2.37 8.525-.636.177-1.922-6.914-.57 1.094-1.273-.676-.53 1.472-1.298-.405 3.505 6.28zM109.852 69.735l-5.31 2.127-.86-2.135 5.311-2.127z"/>
            <path d="M110.352 68.514l-7.019 2.811-1.382-3.437 7.018-2.81z"/>
        </g>
    </g>
</svg>
