<?xml version="1.0" encoding="UTF-8"?>
<svg width="1440px" height="2651px" viewBox="0 0 1440 2651" version="1.1" xmlns="http://www.w3.org/2000/svg" xmlns:xlink="http://www.w3.org/1999/xlink">
    <!-- Generator: Sketch 59.1 (86144) - https://sketch.com -->
    <title>lines-bg</title>
    <desc>Created with Sketch.</desc>
    <g id="aaa" stroke="none" stroke-width="1" fill="none" fill-rule="evenodd" opacity="0.3">
        <g id="Madsuite-Landing" fill="#D7D7D7">
            <g id="lines-bg" transform="translate(-94.000000, -1000.000000)">
                <path d="M520.367253,2792.29035 C542.300228,2802.15136 559.541062,2822.63866 568.674716,2843.08414 C571.725806,2849.91533 574.221161,2857.16471 576.633701,2864.17573 C582.744597,2881.9385 589.064711,2900.30347 604.995757,2913.18174 C626.331589,2930.33813 661.166313,2933.91368 691.675028,2922.06626 C721.231367,2910.58476 743.458553,2888.08594 761.303068,2867.59446 C775.488454,2851.30373 788.874019,2833.44478 801.817176,2816.17339 C807.023643,2809.22719 812.406636,2802.04681 817.78745,2795.0337 C908.897339,2676.38802 1001.03588,2607.88374 1107.75209,2579.45076 C1127.05023,2574.32161 1147.50125,2570.36969 1167.27885,2566.54531 C1214.17627,2557.47887 1262.66898,2548.10506 1300.91874,2522.29625 C1346.04218,2491.85385 1369.79927,2445.15209 1394.9555,2395.70907 L1397.45085,2390.80993 C1404.74296,2376.43871 1413.82213,2358.55257 1423.58779,2342.22002 C1431.50537,2328.9842 1440.32738,2316.03902 1448.86171,2303.51621 C1473.54938,2267.2902 1496.86624,2233.07151 1500.16578,2192.10319 C1501.56056,2174.76488 1499.01726,2156.92266 1496.55678,2139.67008 C1494.14641,2122.7437 1491.65106,2105.23812 1492.73856,2087.8329 C1495.56953,2044.43278 1519.93248,2004.08338 1543.49561,1965.05756 C1550.32569,1953.74751 1557.38678,1942.05064 1563.74176,1930.55241 C1578.85337,1903.40956 1595.86974,1867.08318 1593.30464,1826.76932 C1592.01883,1805.2449 1585.38271,1784.64678 1578.96452,1764.72822 C1577.10772,1758.96342 1575.18553,1753.00416 1573.42461,1747.11182 C1528.59539,1598.0781 1566.40275,1434.93035 1602.96352,1277.15011 C1605.12543,1267.82649 1607.28299,1258.51123 1609.42311,1249.20224 C1615.87181,1221.131 1623.64773,1184.48052 1626.52883,1149.95864 C1629.7499,1111.34893 1616.49292,1067.59752 1585.6159,1062 C1583.75473,1064.98172 1581.62333,1067.94671 1579.26963,1070.82597 C1568.107,1084.48836 1553.75163,1094.63164 1535.38843,1101.83293 C1515.54327,1109.61761 1489.41505,1114.62129 1455.5,1117.13673 C1451.41155,1117.43992 1447.28604,1117.73474 1443.12348,1118.03375 C1389.85146,1121.84349 1329.47476,1126.15925 1278.85719,1153.31256 L1278.37773,1152.49081 L1278.85719,1153.31256 C1256.56026,1165.27289 1237.02457,1181.50089 1216.34254,1198.68028 C1194.512,1216.81524 1171.93394,1235.56913 1145.77085,1248.88232 C1128.66513,1257.58493 1110.46756,1263.34973 1092.87149,1268.92425 C1082.90315,1272.07952 1072.59482,1275.34352 1062.70276,1279.08635 C1054.12484,1282.36499 1046.66056,1285.68335 1039.88497,1289.22963 C1016.44606,1301.50361 995.910051,1319.54239 976.049638,1336.98315 C954.493691,1355.91896 932.201124,1375.49669 905.898554,1388.08431 C856.091699,1412.04262 800.56623,1409.02326 746.871415,1406.10427 C701.299035,1403.62647 654.177139,1401.06295 609.677,1414.5246 C598.098115,1418.02697 586.18797,1422.72537 571.054566,1429.76357 C562.993152,1433.51686 554.877254,1437.53151 547.031596,1441.41444 C520.140601,1454.72554 492.3321,1468.48411 462.137212,1473.90599 C453.827352,1475.38848 445.345323,1476.29387 436.205131,1476.67861 C403.660904,1478.08165 373.638184,1471.81084 345.677129,1465.26611 C340.331184,1464.01362 334.946011,1462.7444 329.541224,1461.43546 C265.062987,1445.81175 220.039804,1447.66853 191.904401,1467.10825 C185.704152,1471.40519 180.380001,1476.54897 175.232377,1481.5192 C168.744453,1487.78374 162.038594,1494.25947 153.462854,1499.20251 C137.512194,1508.3965 117.930738,1510.84711 98.9943696,1513.21618 C77.6999448,1515.88634 55.6776173,1518.64015 38.2406412,1530.87858 C-15.2013693,1568.39263 1.89998688,1627.22619 25.8793704,1689.3112 C32.1558972,1705.55802 37.765543,1720.89108 43.1899441,1735.72023 C53.8774745,1764.93523 63.10702,1790.16693 73.9362081,1812.99194 C76.2463187,1817.8618 78.5477118,1822.56229 80.7575723,1827.08297 C88.0300619,1841.95184 94.3109474,1854.79456 96.9806506,1865.37067 C106.384544,1902.64635 120.118805,1939.31984 136.697117,1971.42873 C169.315443,2034.81015 188.166817,2084.87627 194.356169,2167.81241 C194.598077,2171.0346 194.800757,2174.27978 195.005616,2177.52078 C195.679035,2188.22444 196.372068,2199.28775 198.435912,2209.12366 C202.134268,2226.77143 208.221192,2239.54097 214.665528,2253.06117 C220.928979,2266.2029 227.406006,2279.7921 231.522797,2298.28252 C234.275316,2310.6255 235.116545,2323.95751 235.929442,2336.85251 C236.090714,2339.39722 236.249807,2341.93356 236.424155,2344.45109 C239.115651,2382.94371 244.954129,2416.98466 254.275207,2448.51227 C256.40879,2455.77002 258.792999,2463.08841 261.096571,2470.16843 C266.891462,2487.96256 272.884673,2506.36517 275.493355,2525.51634 C280.793533,2564.15951 271.794998,2603.45507 263.092855,2641.46049 C261.66974,2647.67485 260.248804,2653.88084 258.891069,2660.07638 C258.344053,2662.55836 257.814471,2665.05497 257.311041,2667.55786 C253.433978,2687.12932 252.815043,2702.64848 255.428083,2714.99773 C258.145732,2727.853 264.071383,2739.03759 273.549375,2749.19342 C281.643479,2757.87093 290.868666,2764.12502 301.730544,2768.2965 C312.30039,2772.36134 324.589742,2774.24321 336.475915,2776.06026 C352.60746,2778.53179 367.847652,2780.86531 377.587165,2788.33006 C380.324428,2790.42521 382.586593,2792.88001 384.77684,2795.25325 C389.157332,2800.00184 393.690379,2804.91562 402.346756,2807.28677 C412.548291,2810.08658 424.090127,2806.9794 438.284231,2801.45506 C440.239107,2800.68559 442.209239,2799.89729 444.190268,2799.10482 C459.794411,2792.8591 475.925957,2786.40219 492.227492,2786.23909 C502.206733,2786.13454 511.656393,2788.37397 520.367253,2792.29035 M617.33929,2923.60091 C612.025929,2921.21296 607.117934,2918.25835 602.754789,2914.74753 C586.396262,2901.52391 579.988845,2882.90129 573.79065,2864.89133 C571.393317,2857.91778 568.910988,2850.70585 565.890349,2843.94767 C553.389348,2815.95727 525.464779,2787.88114 491.267917,2788.24289 C475.345268,2788.4039 459.394288,2794.78778 443.966361,2800.96257 C441.978755,2801.75925 440.004224,2802.54965 438.04277,2803.31915 C426.295839,2807.8943 412.766165,2812.49454 400.825268,2809.22001 C391.615151,2806.69614 386.892406,2801.57524 382.324397,2796.6237 C380.092698,2794.20439 377.983045,2791.9189 375.38085,2789.92198 C366.042149,2782.75814 351.050101,2780.47057 335.181937,2778.0408 C323.188735,2776.20698 310.790166,2774.30833 300.017424,2770.16602 C288.869827,2765.88152 279.402541,2759.46836 271.101232,2750.56898 C261.387675,2740.15779 255.307167,2728.68436 252.517544,2715.4942 C249.856504,2702.8979 250.471093,2687.13997 254.40054,2667.32337 C254.90398,2664.80996 255.435752,2662.30074 255.984959,2659.80615 C257.3449,2653.60628 258.768044,2647.39386 260.191188,2641.17307 C268.856456,2603.32769 277.818122,2564.19216 272.563605,2525.8763 C269.976665,2506.88775 264.009485,2488.56205 258.238452,2470.84274 C255.930474,2463.75209 253.544038,2456.42097 251.401694,2449.13795 C242.043379,2417.482 236.18081,2383.31682 233.478363,2344.68731 C233.306191,2342.16554 233.147095,2339.62495 232.98582,2337.07808 C232.175085,2324.25177 231.340378,2310.99051 228.620495,2298.78523 C224.545029,2280.49717 218.113639,2267.00381 211.89365,2253.95376 C205.688917,2240.92879 199.270603,2227.46262 195.524226,2209.60112 C193.436367,2199.6395 192.736781,2188.50691 192.061169,2177.74025 C191.856307,2174.50544 191.653623,2171.27063 191.41171,2168.05464 C185.244027,2085.42589 166.459835,2035.53205 133.952002,1972.36442 C117.310154,1940.13343 103.523311,1903.32311 94.0865369,1865.91058 C91.4625472,1855.5203 85.2207644,1842.7588 77.9917163,1827.98156 C75.7774526,1823.4545 73.4738337,1818.74552 71.1614972,1813.86926 C60.2950415,1790.96841 51.0500545,1765.69843 40.3470532,1736.44088 C34.9269017,1721.61763 29.3215018,1706.29045 23.0492074,1690.05786 C-1.20308288,1627.2708 -18.4551614,1567.74154 36.0928772,1529.45078 C53.9355714,1516.92766 76.2111519,1514.13824 97.7522767,1511.44291 C117.351562,1508.98805 135.86333,1506.6712 151.465608,1497.67982 C159.83012,1492.85792 166.451117,1486.46358 172.851996,1480.28253 C178.056387,1475.25572 183.439489,1470.05744 189.768448,1465.67048 C218.405678,1445.88315 263.961539,1443.93223 329.036048,1459.70062 C334.436585,1461.0075 339.815328,1462.27466 345.159201,1463.52509 C372.981337,1470.03653 402.847745,1476.28032 435.135459,1474.88979 C444.18648,1474.50713 452.579324,1473.61217 460.795638,1472.14637 C490.705633,1466.77454 518.38611,1453.07835 545.151241,1439.82965 C553.010133,1435.94244 561.134912,1431.92141 569.220462,1428.15548 C584.441346,1421.07738 596.436727,1416.34749 608.107379,1412.81785 C652.952758,1399.2534 700.256493,1401.82327 746.004141,1404.31367 C801.905583,1407.35192 854.707927,1410.22289 904.047216,1386.48981 C930.108403,1374.01688 952.296807,1354.52857 973.757295,1335.68011 C993.700924,1318.16154 1014.3267,1300.04494 1037.97748,1287.66192 C1044.82078,1284.08001 1052.35494,1280.73019 1061.01149,1277.4222 C1070.95606,1273.66045 1081.29293,1270.38382 1091.28762,1267.22011 C1108.80777,1261.67054 1126.92289,1255.93278 1143.88293,1247.30314 C1169.8504,1234.08789 1192.34174,1215.40672 1214.09209,1197.3403 C1234.85299,1180.09566 1254.46317,1163.80661 1276.93272,1151.74979 C1327.9327,1124.39506 1388.53946,1120.06038 1442.01305,1116.2359 C1446.17352,1115.93897 1450.30129,1115.64414 1454.38765,1115.34094 C1488.09415,1112.84008 1514.03111,1107.87809 1533.6827,1100.17059 C1551.7259,1093.09458 1565.82004,1083.14132 1576.76931,1069.74415 C1579.21459,1066.74981 1581.41578,1063.66138 1583.31621,1060.5583 L1583.65837,1060 L1584.32527,1060.10873 C1616.83528,1065.40947 1630.84006,1110.47305 1627.5252,1150.1857 C1624.63315,1184.82555 1616.844,1221.56059 1610.37992,1249.69318 C1608.23975,1259.00031 1606.07997,1268.31999 1603.91801,1277.64384 C1567.40881,1435.19386 1529.65954,1598.10943 1574.35018,1746.68478 C1576.10895,1752.56473 1578.02464,1758.51369 1579.8793,1764.27026 C1586.33249,1784.29597 1593.00579,1805.00543 1594.30253,1826.75413 C1596.89819,1867.53948 1579.74854,1904.17625 1564.51458,1931.53934 C1558.14421,1943.06504 1551.07208,1954.77685 1544.23314,1966.1039 C1520.78287,2004.93833 1496.53712,2045.09638 1493.7366,2088.05221 C1492.65998,2105.27385 1495.14013,2122.68368 1497.53964,2139.52058 C1500.01543,2156.87396 1502.56968,2174.817 1501.15961,2192.35439 C1497.82078,2233.80468 1474.36833,2268.22079 1449.54068,2304.65472 C1441.02361,2317.15484 1432.2145,2330.07944 1424.3251,2343.2675 C1414.59628,2359.54191 1405.53001,2377.39923 1398.24865,2391.74781 L1395.75543,2396.64707 C1370.48536,2446.31507 1346.61882,2493.2292 1301.0804,2523.95047 C1262.49424,2549.98786 1213.79569,2559.40372 1166.699,2568.50593 C1146.95587,2572.32414 1126.53713,2576.26989 1107.30617,2581.38244 C1001.03458,2609.69485 909.229813,2677.97921 818.392694,2796.27241 C813.01831,2803.27314 807.637388,2810.45162 802.435176,2817.3938 C789.469964,2834.69281 776.062335,2852.58149 761.830896,2868.92491 C743.831286,2889.59882 721.392251,2912.29894 691.434308,2923.93547 C666.484612,2933.62526 638.666834,2933.18823 617.33929,2923.60091" id="Fill-1"></path>
                <path d="M520.367253,3512.29035 C542.300228,3522.15136 559.541062,3542.63866 568.674716,3563.08414 C571.725806,3569.91533 574.221161,3577.16471 576.633701,3584.17573 C582.744597,3601.9385 589.064711,3620.30347 604.995757,3633.18174 C626.331589,3650.33813 661.166313,3653.91368 691.675028,3642.06626 C721.231367,3630.58476 743.458553,3608.08594 761.303068,3587.59446 C775.488454,3571.30373 788.874019,3553.44478 801.817176,3536.17339 C807.023643,3529.22719 812.406636,3522.04681 817.78745,3515.0337 C908.897339,3396.38802 1001.03588,3327.88374 1107.75209,3299.45076 C1127.05023,3294.32161 1147.50125,3290.36969 1167.27885,3286.54531 C1214.17627,3277.47887 1262.66898,3268.10506 1300.91874,3242.29625 C1346.04218,3211.85385 1369.79927,3165.15209 1394.9555,3115.70907 L1397.45085,3110.80993 C1404.74296,3096.43871 1413.82213,3078.55257 1423.58779,3062.22002 C1431.50537,3048.9842 1440.32738,3036.03902 1448.86171,3023.51621 C1473.54938,2987.2902 1496.86624,2953.07151 1500.16578,2912.10319 C1501.56056,2894.76488 1499.01726,2876.92266 1496.55678,2859.67008 C1494.14641,2842.7437 1491.65106,2825.23812 1492.73856,2807.8329 C1495.56953,2764.43278 1519.93248,2724.08338 1543.49561,2685.05756 C1550.32569,2673.74751 1557.38678,2662.05064 1563.74176,2650.55241 C1578.85337,2623.40956 1595.86974,2587.08318 1593.30464,2546.76932 C1592.01883,2525.2449 1585.38271,2504.64678 1578.96452,2484.72822 C1577.10772,2478.96342 1575.18553,2473.00416 1573.42461,2467.11182 C1528.59539,2318.0781 1566.40275,2154.93035 1602.96352,1997.15011 C1605.12543,1987.82649 1607.28299,1978.51123 1609.42311,1969.20224 C1615.87181,1941.131 1623.64773,1904.48052 1626.52883,1869.95864 C1629.7499,1831.34893 1616.49292,1787.59752 1585.6159,1782 C1583.75473,1784.98172 1581.62333,1787.94671 1579.26963,1790.82597 C1568.107,1804.48836 1553.75163,1814.63164 1535.38843,1821.83293 C1515.54327,1829.61761 1489.41505,1834.62129 1455.5,1837.13673 C1451.41155,1837.43992 1447.28604,1837.73474 1443.12348,1838.03375 C1389.85146,1841.84349 1329.47476,1846.15925 1278.85719,1873.31256 L1278.37773,1872.49081 L1278.85719,1873.31256 C1256.56026,1885.27289 1237.02457,1901.50089 1216.34254,1918.68028 C1194.512,1936.81524 1171.93394,1955.56913 1145.77085,1968.88232 C1128.66513,1977.58493 1110.46756,1983.34973 1092.87149,1988.92425 C1082.90315,1992.07952 1072.59482,1995.34352 1062.70276,1999.08635 C1054.12484,2002.36499 1046.66056,2005.68335 1039.88497,2009.22963 C1016.44606,2021.50361 995.910051,2039.54239 976.049638,2056.98315 C954.493691,2075.91896 932.201124,2095.49669 905.898554,2108.08431 C856.091699,2132.04262 800.56623,2129.02326 746.871415,2126.10427 C701.299035,2123.62647 654.177139,2121.06295 609.677,2134.5246 C598.098115,2138.02697 586.18797,2142.72537 571.054566,2149.76357 C562.993152,2153.51686 554.877254,2157.53151 547.031596,2161.41444 C520.140601,2174.72554 492.3321,2188.48411 462.137212,2193.90599 C453.827352,2195.38848 445.345323,2196.29387 436.205131,2196.67861 C403.660904,2198.08165 373.638184,2191.81084 345.677129,2185.26611 C340.331184,2184.01362 334.946011,2182.7444 329.541224,2181.43546 C265.062987,2165.81175 220.039804,2167.66853 191.904401,2187.10825 C185.704152,2191.40519 180.380001,2196.54897 175.232377,2201.5192 C168.744453,2207.78374 162.038594,2214.25947 153.462854,2219.20251 C137.512194,2228.3965 117.930738,2230.84711 98.9943696,2233.21618 C77.6999448,2235.88634 55.6776173,2238.64015 38.2406412,2250.87858 C-15.2013693,2288.39263 1.89998688,2347.22619 25.8793704,2409.3112 C32.1558972,2425.55802 37.765543,2440.89108 43.1899441,2455.72023 C53.8774745,2484.93523 63.10702,2510.16693 73.9362081,2532.99194 C76.2463187,2537.8618 78.5477118,2542.56229 80.7575723,2547.08297 C88.0300619,2561.95184 94.3109474,2574.79456 96.9806506,2585.37067 C106.384544,2622.64635 120.118805,2659.31984 136.697117,2691.42873 C169.315443,2754.81015 188.166817,2804.87627 194.356169,2887.81241 C194.598077,2891.0346 194.800757,2894.27978 195.005616,2897.52078 C195.679035,2908.22444 196.372068,2919.28775 198.435912,2929.12366 C202.134268,2946.77143 208.221192,2959.54097 214.665528,2973.06117 C220.928979,2986.2029 227.406006,2999.7921 231.522797,3018.28252 C234.275316,3030.6255 235.116545,3043.95751 235.929442,3056.85251 C236.090714,3059.39722 236.249807,3061.93356 236.424155,3064.45109 C239.115651,3102.94371 244.954129,3136.98466 254.275207,3168.51227 C256.40879,3175.77002 258.792999,3183.08841 261.096571,3190.16843 C266.891462,3207.96256 272.884673,3226.36517 275.493355,3245.51634 C280.793533,3284.15951 271.794998,3323.45507 263.092855,3361.46049 C261.66974,3367.67485 260.248804,3373.88084 258.891069,3380.07638 C258.344053,3382.55836 257.814471,3385.05497 257.311041,3387.55786 C253.433978,3407.12932 252.815043,3422.64848 255.428083,3434.99773 C258.145732,3447.853 264.071383,3459.03759 273.549375,3469.19342 C281.643479,3477.87093 290.868666,3484.12502 301.730544,3488.2965 C312.30039,3492.36134 324.589742,3494.24321 336.475915,3496.06026 C352.60746,3498.53179 367.847652,3500.86531 377.587165,3508.33006 C380.324428,3510.42521 382.586593,3512.88001 384.77684,3515.25325 C389.157332,3520.00184 393.690379,3524.91562 402.346756,3527.28677 C412.548291,3530.08658 424.090127,3526.9794 438.284231,3521.45506 C440.239107,3520.68559 442.209239,3519.89729 444.190268,3519.10482 C459.794411,3512.8591 475.925957,3506.40219 492.227492,3506.23909 C502.206733,3506.13454 511.656393,3508.37397 520.367253,3512.29035 M617.33929,3643.60091 C612.025929,3641.21296 607.117934,3638.25835 602.754789,3634.74753 C586.396262,3621.52391 579.988845,3602.90129 573.79065,3584.89133 C571.393317,3577.91778 568.910988,3570.70585 565.890349,3563.94767 C553.389348,3535.95727 525.464779,3507.88114 491.267917,3508.24289 C475.345268,3508.4039 459.394288,3514.78778 443.966361,3520.96257 C441.978755,3521.75925 440.004224,3522.54965 438.04277,3523.31915 C426.295839,3527.8943 412.766165,3532.49454 400.825268,3529.22001 C391.615151,3526.69614 386.892406,3521.57524 382.324397,3516.6237 C380.092698,3514.20439 377.983045,3511.9189 375.38085,3509.92198 C366.042149,3502.75814 351.050101,3500.47057 335.181937,3498.0408 C323.188735,3496.20698 310.790166,3494.30833 300.017424,3490.16602 C288.869827,3485.88152 279.402541,3479.46836 271.101232,3470.56898 C261.387675,3460.15779 255.307167,3448.68436 252.517544,3435.4942 C249.856504,3422.8979 250.471093,3407.13997 254.40054,3387.32337 C254.90398,3384.80996 255.435752,3382.30074 255.984959,3379.80615 C257.3449,3373.60628 258.768044,3367.39386 260.191188,3361.17307 C268.856456,3323.32769 277.818122,3284.19216 272.563605,3245.8763 C269.976665,3226.88775 264.009485,3208.56205 258.238452,3190.84274 C255.930474,3183.75209 253.544038,3176.42097 251.401694,3169.13795 C242.043379,3137.482 236.18081,3103.31682 233.478363,3064.68731 C233.306191,3062.16554 233.147095,3059.62495 232.98582,3057.07808 C232.175085,3044.25177 231.340378,3030.99051 228.620495,3018.78523 C224.545029,3000.49717 218.113639,2987.00381 211.89365,2973.95376 C205.688917,2960.92879 199.270603,2947.46262 195.524226,2929.60112 C193.436367,2919.6395 192.736781,2908.50691 192.061169,2897.74025 C191.856307,2894.50544 191.653623,2891.27063 191.41171,2888.05464 C185.244027,2805.42589 166.459835,2755.53205 133.952002,2692.36442 C117.310154,2660.13343 103.523311,2623.32311 94.0865369,2585.91058 C91.4625472,2575.5203 85.2207644,2562.7588 77.9917163,2547.98156 C75.7774526,2543.4545 73.4738337,2538.74552 71.1614972,2533.86926 C60.2950415,2510.96841 51.0500545,2485.69843 40.3470532,2456.44088 C34.9269017,2441.61763 29.3215018,2426.29045 23.0492074,2410.05786 C-1.20308288,2347.2708 -18.4551614,2287.74154 36.0928772,2249.45078 C53.9355714,2236.92766 76.2111519,2234.13824 97.7522767,2231.44291 C117.351562,2228.98805 135.86333,2226.6712 151.465608,2217.67982 C159.83012,2212.85792 166.451117,2206.46358 172.851996,2200.28253 C178.056387,2195.25572 183.439489,2190.05744 189.768448,2185.67048 C218.405678,2165.88315 263.961539,2163.93223 329.036048,2179.70062 C334.436585,2181.0075 339.815328,2182.27466 345.159201,2183.52509 C372.981337,2190.03653 402.847745,2196.28032 435.135459,2194.88979 C444.18648,2194.50713 452.579324,2193.61217 460.795638,2192.14637 C490.705633,2186.77454 518.38611,2173.07835 545.151241,2159.82965 C553.010133,2155.94244 561.134912,2151.92141 569.220462,2148.15548 C584.441346,2141.07738 596.436727,2136.34749 608.107379,2132.81785 C652.952758,2119.2534 700.256493,2121.82327 746.004141,2124.31367 C801.905583,2127.35192 854.707927,2130.22289 904.047216,2106.48981 C930.108403,2094.01688 952.296807,2074.52857 973.757295,2055.68011 C993.700924,2038.16154 1014.3267,2020.04494 1037.97748,2007.66192 C1044.82078,2004.08001 1052.35494,2000.73019 1061.01149,1997.4222 C1070.95606,1993.66045 1081.29293,1990.38382 1091.28762,1987.22011 C1108.80777,1981.67054 1126.92289,1975.93278 1143.88293,1967.30314 C1169.8504,1954.08789 1192.34174,1935.40672 1214.09209,1917.3403 C1234.85299,1900.09566 1254.46317,1883.80661 1276.93272,1871.74979 C1327.9327,1844.39506 1388.53946,1840.06038 1442.01305,1836.2359 C1446.17352,1835.93897 1450.30129,1835.64414 1454.38765,1835.34094 C1488.09415,1832.84008 1514.03111,1827.87809 1533.6827,1820.17059 C1551.7259,1813.09458 1565.82004,1803.14132 1576.76931,1789.74415 C1579.21459,1786.74981 1581.41578,1783.66138 1583.31621,1780.5583 L1583.65837,1780 L1584.32527,1780.10873 C1616.83528,1785.40947 1630.84006,1830.47305 1627.5252,1870.1857 C1624.63315,1904.82555 1616.844,1941.56059 1610.37992,1969.69318 C1608.23975,1979.00031 1606.07997,1988.31999 1603.91801,1997.64384 C1567.40881,2155.19386 1529.65954,2318.10943 1574.35018,2466.68478 C1576.10895,2472.56473 1578.02464,2478.51369 1579.8793,2484.27026 C1586.33249,2504.29597 1593.00579,2525.00543 1594.30253,2546.75413 C1596.89819,2587.53948 1579.74854,2624.17625 1564.51458,2651.53934 C1558.14421,2663.06504 1551.07208,2674.77685 1544.23314,2686.1039 C1520.78287,2724.93833 1496.53712,2765.09638 1493.7366,2808.05221 C1492.65998,2825.27385 1495.14013,2842.68368 1497.53964,2859.52058 C1500.01543,2876.87396 1502.56968,2894.817 1501.15961,2912.35439 C1497.82078,2953.80468 1474.36833,2988.22079 1449.54068,3024.65472 C1441.02361,3037.15484 1432.2145,3050.07944 1424.3251,3063.2675 C1414.59628,3079.54191 1405.53001,3097.39923 1398.24865,3111.74781 L1395.75543,3116.64707 C1370.48536,3166.31507 1346.61882,3213.2292 1301.0804,3243.95047 C1262.49424,3269.98786 1213.79569,3279.40372 1166.699,3288.50593 C1146.95587,3292.32414 1126.53713,3296.26989 1107.30617,3301.38244 C1001.03458,3329.69485 909.229813,3397.97921 818.392694,3516.27241 C813.01831,3523.27314 807.637388,3530.45162 802.435176,3537.3938 C789.469964,3554.69281 776.062335,3572.58149 761.830896,3588.92491 C743.831286,3609.59882 721.392251,3632.29894 691.434308,3643.93547 C666.484612,3653.62526 638.666834,3653.18823 617.33929,3643.60091" id="Fill-1-Copy-2"></path>
                <path d="M520.367253,1732.29035 C542.300228,1742.15136 559.541062,1762.63866 568.674716,1783.08414 C571.725806,1789.91533 574.221161,1797.16471 576.633701,1804.17573 C582.744597,1821.9385 589.064711,1840.30347 604.995757,1853.18174 C626.331589,1870.33813 661.166313,1873.91368 691.675028,1862.06626 C721.231367,1850.58476 743.458553,1828.08594 761.303068,1807.59446 C775.488454,1791.30373 788.874019,1773.44478 801.817176,1756.17339 C807.023643,1749.22719 812.406636,1742.04681 817.78745,1735.0337 C908.897339,1616.38802 1001.03588,1547.88374 1107.75209,1519.45076 C1127.05023,1514.32161 1147.50125,1510.36969 1167.27885,1506.54531 C1214.17627,1497.47887 1262.66898,1488.10506 1300.91874,1462.29625 C1346.04218,1431.85385 1369.79927,1385.15209 1394.9555,1335.70907 L1397.45085,1330.80993 C1404.74296,1316.43871 1413.82213,1298.55257 1423.58779,1282.22002 C1431.50537,1268.9842 1440.32738,1256.03902 1448.86171,1243.51621 C1473.54938,1207.2902 1496.86624,1173.07151 1500.16578,1132.10319 C1501.56056,1114.76488 1499.01726,1096.92266 1496.55678,1079.67008 C1494.14641,1062.7437 1491.65106,1045.23812 1492.73856,1027.8329 C1495.56953,984.432778 1519.93248,944.083376 1543.49561,905.057556 C1550.32569,893.747512 1557.38678,882.050639 1563.74176,870.552408 C1578.85337,843.409557 1595.86974,807.083177 1593.30464,766.769321 C1592.01883,745.2449 1585.38271,724.646778 1578.96452,704.72822 C1577.10772,698.963422 1575.18553,693.004165 1573.42461,687.111818 C1528.59539,538.0781 1566.40275,374.93035 1602.96352,217.150115 C1605.12543,207.82649 1607.28299,198.511229 1609.42311,189.202241 C1615.87181,161.131001 1623.64773,124.48052 1626.52883,89.9586444 C1629.7499,51.3489271 1616.49292,7.59752035 1585.6159,2 C1583.75473,4.98171984 1581.62333,7.94671195 1579.26963,10.8259744 C1568.107,24.4883569 1553.75163,34.6316409 1535.38843,41.8329334 C1515.54327,49.6176059 1489.41505,54.6212915 1455.5,57.1367255 C1451.41155,57.4399158 1447.28604,57.7347423 1443.12348,58.0337506 C1389.85146,61.8434937 1329.47476,66.1592509 1278.85719,93.3125565 L1278.37773,92.4908063 L1278.85719,93.3125565 C1256.56026,105.272891 1237.02457,121.500891 1216.34254,138.680281 C1194.512,156.815244 1171.93394,175.569132 1145.77085,188.882323 C1128.66513,197.58493 1110.46756,203.349728 1092.87149,208.924248 C1082.90315,212.079518 1072.59482,215.343519 1062.70276,219.086351 C1054.12484,222.364988 1046.66056,225.683354 1039.88497,229.229635 C1016.44606,241.503615 995.910051,259.542392 976.049638,276.983153 C954.493691,295.918956 932.201124,315.496686 905.898554,328.084311 C856.091699,352.042619 800.56623,349.023261 746.871415,346.10427 C701.299035,343.626474 654.177139,341.062947 609.677,354.524597 C598.098115,358.026968 586.18797,362.725372 571.054566,369.763569 C562.993152,373.516856 554.877254,377.531514 547.031596,381.414441 C520.140601,394.725541 492.3321,408.484108 462.137212,413.905987 C453.827352,415.388483 445.345323,416.293872 436.205131,416.67861 C403.660904,418.081649 373.638184,411.810837 345.677129,405.266109 C340.331184,404.013619 334.946011,402.744402 329.541224,401.435456 C265.062987,385.811746 220.039804,387.668525 191.904401,407.108251 C185.704152,411.40519 180.380001,416.54897 175.232377,421.5192 C168.744453,427.783739 162.038594,434.259466 153.462854,439.202513 C137.512194,448.396498 117.930738,450.847112 98.9943696,453.216178 C77.6999448,455.886344 55.6776173,458.640148 38.2406412,470.878582 C-15.2013693,508.392632 1.89998688,567.226189 25.8793704,629.3112 C32.1558972,645.558018 37.765543,660.891084 43.1899441,675.720226 C53.8774745,704.935226 63.10702,730.166932 73.9362081,752.991935 C76.2463187,757.861799 78.5477118,762.562294 80.7575723,767.082966 C88.0300619,781.951837 94.3109474,794.79456 96.9806506,805.370674 C106.384544,842.646354 120.118805,879.319836 136.697117,911.428735 C169.315443,974.810145 188.166817,1024.87627 194.356169,1107.81241 C194.598077,1111.0346 194.800757,1114.27978 195.005616,1117.52078 C195.679035,1128.22444 196.372068,1139.28775 198.435912,1149.12366 C202.134268,1166.77143 208.221192,1179.54097 214.665528,1193.06117 C220.928979,1206.2029 227.406006,1219.7921 231.522797,1238.28252 C234.275316,1250.6255 235.116545,1263.95751 235.929442,1276.85251 C236.090714,1279.39722 236.249807,1281.93356 236.424155,1284.45109 C239.115651,1322.94371 244.954129,1356.98466 254.275207,1388.51227 C256.40879,1395.77002 258.792999,1403.08841 261.096571,1410.16843 C266.891462,1427.96256 272.884673,1446.36517 275.493355,1465.51634 C280.793533,1504.15951 271.794998,1543.45507 263.092855,1581.46049 C261.66974,1587.67485 260.248804,1593.88084 258.891069,1600.07638 C258.344053,1602.55836 257.814471,1605.05497 257.311041,1607.55786 C253.433978,1627.12932 252.815043,1642.64848 255.428083,1654.99773 C258.145732,1667.853 264.071383,1679.03759 273.549375,1689.19342 C281.643479,1697.87093 290.868666,1704.12502 301.730544,1708.2965 C312.30039,1712.36134 324.589742,1714.24321 336.475915,1716.06026 C352.60746,1718.53179 367.847652,1720.86531 377.587165,1728.33006 C380.324428,1730.42521 382.586593,1732.88001 384.77684,1735.25325 C389.157332,1740.00184 393.690379,1744.91562 402.346756,1747.28677 C412.548291,1750.08658 424.090127,1746.9794 438.284231,1741.45506 C440.239107,1740.68559 442.209239,1739.89729 444.190268,1739.10482 C459.794411,1732.8591 475.925957,1726.40219 492.227492,1726.23909 C502.206733,1726.13454 511.656393,1728.37397 520.367253,1732.29035 M617.33929,1863.60091 C612.025929,1861.21296 607.117934,1858.25835 602.754789,1854.74753 C586.396262,1841.52391 579.988845,1822.90129 573.79065,1804.89133 C571.393317,1797.91778 568.910988,1790.70585 565.890349,1783.94767 C553.389348,1755.95727 525.464779,1727.88114 491.267917,1728.24289 C475.345268,1728.4039 459.394288,1734.78778 443.966361,1740.96257 C441.978755,1741.75925 440.004224,1742.54965 438.04277,1743.31915 C426.295839,1747.8943 412.766165,1752.49454 400.825268,1749.22001 C391.615151,1746.69614 386.892406,1741.57524 382.324397,1736.6237 C380.092698,1734.20439 377.983045,1731.9189 375.38085,1729.92198 C366.042149,1722.75814 351.050101,1720.47057 335.181937,1718.0408 C323.188735,1716.20698 310.790166,1714.30833 300.017424,1710.16602 C288.869827,1705.88152 279.402541,1699.46836 271.101232,1690.56898 C261.387675,1680.15779 255.307167,1668.68436 252.517544,1655.4942 C249.856504,1642.8979 250.471093,1627.13997 254.40054,1607.32337 C254.90398,1604.80996 255.435752,1602.30074 255.984959,1599.80615 C257.3449,1593.60628 258.768044,1587.39386 260.191188,1581.17307 C268.856456,1543.32769 277.818122,1504.19216 272.563605,1465.8763 C269.976665,1446.88775 264.009485,1428.56205 258.238452,1410.84274 C255.930474,1403.75209 253.544038,1396.42097 251.401694,1389.13795 C242.043379,1357.482 236.18081,1323.31682 233.478363,1284.68731 C233.306191,1282.16554 233.147095,1279.62495 232.98582,1277.07808 C232.175085,1264.25177 231.340378,1250.99051 228.620495,1238.78523 C224.545029,1220.49717 218.113639,1207.00381 211.89365,1193.95376 C205.688917,1180.92879 199.270603,1167.46262 195.524226,1149.60112 C193.436367,1139.6395 192.736781,1128.50691 192.061169,1117.74025 C191.856307,1114.50544 191.653623,1111.27063 191.41171,1108.05464 C185.244027,1025.42589 166.459835,975.532051 133.952002,912.364419 C117.310154,880.133433 103.523311,843.323112 94.0865369,805.910577 C91.4625472,795.520298 85.2207644,782.758801 77.9917163,767.981561 C75.7774526,763.454502 73.4738337,758.745524 71.1614972,753.869265 C60.2950415,730.968411 51.0500545,705.698431 40.3470532,676.440875 C34.9269017,661.617633 29.3215018,646.290454 23.0492074,630.057864 C-1.20308288,567.270798 -18.4551614,507.741542 36.0928772,469.450779 C53.9355714,456.927658 76.2111519,454.138237 97.7522767,451.442912 C117.351562,448.988054 135.86333,446.671204 151.465608,437.679817 C159.83012,432.857924 166.451117,426.463584 172.851996,420.282528 C178.056387,415.255715 183.439489,410.057439 189.768448,405.670479 C218.405678,385.883154 263.961539,383.932232 329.036048,399.700616 C334.436585,401.007503 339.815328,402.274662 345.159201,403.525092 C372.981337,410.036529 402.847745,416.280315 435.135459,414.889787 C444.18648,414.50713 452.579324,413.612174 460.795638,412.146368 C490.705633,406.774537 518.38611,393.078354 545.151241,379.82965 C553.010133,375.942443 561.134912,371.921411 569.220462,368.155484 C584.441346,361.07738 596.436727,356.347492 608.107379,352.81785 C652.952758,339.253402 700.256493,341.823266 746.004141,344.313671 C801.905583,347.351923 854.707927,350.222894 904.047216,326.489814 C930.108403,314.016878 952.296807,294.528569 973.757295,275.680112 C993.700924,258.161545 1014.3267,240.044945 1037.97748,227.661923 C1044.82078,224.080005 1052.35494,220.730191 1061.01149,217.422197 C1070.95606,213.660451 1081.29293,210.383822 1091.28762,207.220109 C1108.80777,201.670541 1126.92289,195.932781 1143.88293,187.303141 C1169.8504,174.087893 1192.34174,155.406717 1214.09209,137.340302 C1234.85299,120.095658 1254.46317,103.80661 1276.93272,91.7497874 C1327.9327,64.3950602 1388.53946,60.0603752 1442.01305,56.2358991 C1446.17352,55.9389743 1450.30129,55.6441404 1454.38765,55.3409425 C1488.09415,52.8400822 1514.03111,47.8780911 1533.6827,40.1705904 C1551.7259,33.0945778 1565.82004,23.1413213 1576.76931,9.74415446 C1579.21459,6.74981343 1581.41578,3.66137649 1583.31621,0.558302412 L1583.65837,0 L1584.32527,0.108733054 C1616.83528,5.40946944 1630.84006,50.4730473 1627.5252,90.1857043 C1624.63315,124.825546 1616.844,161.56059 1610.37992,189.693177 C1608.23975,199.000308 1606.07997,208.319985 1603.91801,217.643845 C1567.40881,375.193858 1529.65954,538.109429 1574.35018,686.684784 C1576.10895,692.564733 1578.02464,698.513685 1579.8793,704.270264 C1586.33249,724.295965 1593.00579,745.00543 1594.30253,766.754132 C1596.89819,807.539482 1579.74854,844.176248 1564.51458,871.53934 C1558.14421,883.065043 1551.07208,894.776848 1544.23314,906.103905 C1520.78287,944.938333 1496.53712,985.096377 1493.7366,1028.05221 C1492.65998,1045.27385 1495.14013,1062.68368 1497.53964,1079.52058 C1500.01543,1096.87396 1502.56968,1114.817 1501.15961,1132.35439 C1497.82078,1173.80468 1474.36833,1208.22079 1449.54068,1244.65472 C1441.02361,1257.15484 1432.2145,1270.07944 1424.3251,1283.2675 C1414.59628,1299.54191 1405.53001,1317.39923 1398.24865,1331.74781 L1395.75543,1336.64707 C1370.48536,1386.31507 1346.61882,1433.2292 1301.0804,1463.95047 C1262.49424,1489.98786 1213.79569,1499.40372 1166.699,1508.50593 C1146.95587,1512.32414 1126.53713,1516.26989 1107.30617,1521.38244 C1001.03458,1549.69485 909.229813,1617.97921 818.392694,1736.27241 C813.01831,1743.27314 807.637388,1750.45162 802.435176,1757.3938 C789.469964,1774.69281 776.062335,1792.58149 761.830896,1808.92491 C743.831286,1829.59882 721.392251,1852.29894 691.434308,1863.93547 C666.484612,1873.62526 638.666834,1873.18823 617.33929,1863.60091" id="Fill-1-Copy" transform="translate(814.000000, 935.500000) rotate(-180.000000) translate(-814.000000, -935.500000) "></path>
            </g>
        </g>
    </g>
</svg>