<?xml version="1.0" encoding="UTF-8"?>
<svg width="574px" height="308px" viewBox="0 0 574 308" version="1.1" xmlns="http://www.w3.org/2000/svg" xmlns:xlink="http://www.w3.org/1999/xlink">
    <!-- Generator: Sketch 59.1 (86144) - https://sketch.com -->
    <title>Group 14</title>
    <desc>Created with Sketch.</desc>
    <g id="aaa" stroke="none" stroke-width="1" fill="none" fill-rule="evenodd">
        <g id="Madsuite-Landing" transform="translate(-717.000000, -263.000000)">
            <g id="Group-3" transform="translate(0.000000, 40.000000)">
                <g id="SVg2" transform="translate(717.000000, 121.000000)">
                    <g id="Group-14" transform="translate(0.000000, 102.000000)">
                        <path d="M573,93.5002585 C573,96.5378613 570.537321,99 567.5,99 C564.462154,99 562,96.5378613 562,93.5002585 C562,90.4626557 564.462154,88 567.5,88 C570.537321,88 573,90.4626557 573,93.5002585 Z" id="Stroke-5" stroke="#E1B2B2" stroke-width="0.49"></path>
                        <path d="M492.819446,230 L453.181058,230 C450.871747,230 449,228.2092 449,225.999759 C449,223.7908 450.871747,222 453.181058,222 L492.819446,222 C495.128253,222 497,223.7908 497,225.999759 C497,228.2092 495.128253,230 492.819446,230" id="Fill-24" fill="#000000"></path>
                        <polygon id="Fill-25" fill="#171E21" points="467 282 520 282 520 277 467 277"></polygon>
                        <path d="M470.938807,281.76412 C471.344815,284.215412 469.687769,286.53219 467.235951,286.938686 C464.784626,287.345182 462.468309,285.687665 462.061315,283.23588 C461.654814,280.785081 463.312353,278.468302 465.763678,278.061314 C468.215496,277.654818 470.532305,279.312335 470.938807,281.76412" id="Fill-26" fill="#171E21"></path>
                        <polygon id="Fill-27" fill="#171E21" points="491 281 496 281 496 228 491 228"></polygon>
                        <path d="M523.938686,281.76412 C524.345182,284.215412 522.687665,286.53219 520.23588,286.938686 C517.785081,287.345182 515.468302,285.687665 515.061314,283.23588 C514.654818,280.785081 516.312335,278.468302 518.76412,278.061314 C521.215412,277.654818 523.53219,279.312335 523.938686,281.76412" id="Fill-28" fill="#171E21"></path>
                        <path d="M520.114554,230 L473.738433,230 C470.57522,230 468.301146,226.904004 469.196782,223.815507 L491.343766,147.455437 C491.938024,145.406271 493.786272,144 495.884918,144 L542.261539,144 C545.425251,144 547.698825,147.096496 546.80319,150.184493 L524.656705,226.544563 C524.061947,228.593729 522.2137,230 520.114554,230" id="Fill-29" fill="#171E21"></path>
                        <path d="M513.122006,230 L472.737398,230 C469.574504,230 467.301018,226.904004 468.196921,223.815507 L490.337678,147.455437 C490.931782,145.406271 492.779552,144 494.878154,144 L535.263262,144 C538.425656,144 540.698643,147.096496 539.803239,150.184493 L517.662482,226.544563 C517.068378,228.593729 515.220109,230 513.122006,230" id="Fill-30" fill="#2F3676"></path>
                        <path d="M519.810157,230 L470.190854,230 C467.876411,230 466,228.2092 466,225.999759 C466,223.7908 467.876411,222 470.190854,222 L519.810157,222 C522.124094,222 524,223.7908 524,225.999759 C524,228.2092 522.124094,230 519.810157,230" id="Fill-31" fill="#171E21"></path>
                        <polygon id="Fill-32" fill="#B9806F" points="461 261.416696 449.767068 268 441 252.582794 452.233435 246"></polygon>
                        <path d="M459.635143,259 L445.671008,267.315241 L438.274838,278.411211 C436.651457,281.007881 436.573073,284.324012 438.070744,287 L466,270.370535 L459.635143,259 Z" id="Fill-33" fill="#231B22"></path>
                        <path d="M445,270 L445.708519,264.172661 C445.708519,264.172661 450.253534,260.586934 453,265.955826 L445,270 Z" id="Fill-34" fill="#231B22"></path>
                        <path d="M437.350087,185.075957 C437.350087,185.075957 403.253254,183.341238 406.17794,196.451972 C409.103125,209.563712 431.264742,263 431.264742,263 L459.786674,255.606445 L438.210995,215.223051 L480,199.430016 L437.350087,185.075957 Z" id="Fill-35" fill="#000000"></path>
                        <polygon id="Fill-36" fill="#B9806F" points="429 276 442 276 442 259 429 259"></polygon>
                        <path d="M442,274 L425.5,274 L413.441299,279.738789 C410.714168,281.137363 409,283.940051 409,287 L442,287 L442,274 Z" id="Fill-37" fill="#231B22"></path>
                        <path d="M424,274.7873 L427.693375,270.062891 C427.693375,270.062891 433.473525,269.067132 432.968766,275 L424,274.7873 Z" id="Fill-38" fill="#231B22"></path>
                        <path d="M469.020243,194 L428.950682,194.615511 C425.490266,194.668269 422.275768,196.618307 420.832883,199.767712 C419.700657,202.240306 418.865038,205.880109 419.018109,211.219224 C419.444199,226.080415 423.808991,263 423.808991,263 L447.865783,263 L444.63121,223.973108 L488.760925,223.427941 C497.818232,223.316395 506.290354,218.267198 510.117138,210.047493 C511.712593,206.619727 512.537672,202.729197 511.613222,198.624118 L469.020243,194 Z" id="Fill-39" fill="#262626"></path>
                        <path d="M428,185.324839 C428.008428,189.378948 425.200624,189.991659 421.058727,190 C416.916334,190.007706 413.008463,189.408124 413,185.354502 C412.991569,181.30088 416.342948,178.007798 420.484844,178 C424.627237,177.991264 427.991534,181.271217 428,185.324839" id="Fill-40" fill="#E6AA9F"></path>
                        <path d="M432.867064,188.983131 L424.14943,189 C421.871571,189.004328 420.005006,187.211727 420,185.016381 C419.99551,182.821034 421.855079,181.021207 424.132438,181.016871 L432.850572,181 C435.127931,180.995192 436.995496,182.788275 437,184.983621 C437.003992,187.178968 435.144423,188.978795 432.867064,188.983131" id="Fill-41" fill="#E6AA9F"></path>
                        <path d="M432.915332,190 L430,175.776008 L463.72174,167.933682 L470.258938,131.178571 C470.983512,127.384941 475.489799,123.363645 479.306589,124.084509 C483.122878,124.804377 486.628492,129.21226 485.904419,133.006886 L481.696279,180.908242 C481.182163,183.60289 479.130707,185.750039 476.450887,186.399166 L432.915332,190 Z" id="Fill-42" fill="#0459AE"></path>
                        <path d="M507.890382,123.134158 C516.813996,123.526228 520.7212,132.771082 521,138.952299 L512.403652,198 C475.273226,197.678353 470,193.403544 470,193.403544 L470,133.899344 C470.451677,128.170631 473.079796,122.780546 479.608623,122.238641 L492.947577,121 L507.890382,123.134158 Z" id="Fill-43" fill="#0091FF"></path>
                        <path d="M481.676383,122.420773 L491.299285,121 L502,122.675758 C502,122.675758 501.076519,131.353582 487.615918,129.817797 C485.589488,129.586303 483.637963,128.865394 482.255506,127.645282 C480.890142,126.440341 480.549806,124.793459 481.676383,122.420773" id="Fill-44" fill="#B9806F"></path>
                        <polygon id="Fill-45" fill="#0459AE" points="479 175 498.453204 168.347904 500.687453 149 502 171.354649"></polygon>
                        <path d="M514,187 C513.864699,186.991233 513.016544,193.524997 513.016544,193.524997 C513.016544,193.524997 471.979995,197.087583 466,193.139339 L514,187 Z" id="Fill-46" fill="#0459AE"></path>
                        <path d="M462.980058,189.822542 C463.263225,193.85802 460.504582,194.64988 456.372331,194.927419 C452.240577,195.203988 448.301078,194.860946 448.017911,190.825467 C447.734247,186.789989 450.853555,183.294063 454.98531,183.017494 C459.117064,182.74044 462.696394,185.787063 462.980058,189.822542" id="Fill-47" fill="#B9806F"></path>
                        <path d="M469.13826,193.38483 L460.429675,193.990168 C458.154954,194.147708 456.16545,192.392988 456.009832,190.09017 C455.853214,187.786847 457.586525,185.772768 459.862245,185.614721 L468.57033,185.00989 C470.845051,184.851844 472.834555,186.607071 472.990173,188.909888 C473.146791,191.212705 471.41248,193.226784 469.13826,193.38483" id="Fill-48" fill="#B9806F"></path>
                        <path d="M468.838129,194 L465,177.825816 L502.52267,171.544798 L500.647458,139.555844 C499.130545,132.45402 505.659152,126.249483 510.69028,127.073789 C515.502642,127 519.472828,130.736425 520.406198,137.980716 L523,181.662911 C522.66911,184.394766 520.776457,186.680227 518.159233,187.508531 L468.838129,194 Z" id="Fill-49" fill="#0091FF"></path>
                        <path d="M401.25898,146.013728 L443.831809,150.083091 C445.232116,150.216695 446.348367,151.324497 446.511113,152.7405 L450.979615,191.630473 C451.198272,193.538889 449.627233,195.166938 447.740188,194.986268 L404.460466,190.849597 C403.04019,190.713968 401.914453,189.576814 401.775171,188.138038 L398.01456,149.314867 C397.831847,147.425176 399.3944,145.835083 401.25898,146.013728" id="Fill-50" fill="#050001"></path>
                        <path d="M398.259106,145.013654 L440.832601,149.083493 C442.232431,149.217096 443.349199,150.324384 443.511947,151.740376 L447.979521,190.630065 C448.198681,192.538467 446.628116,194.166504 444.740542,193.986342 L401.460144,189.849195 C400.039846,189.713567 398.91459,188.576421 398.774807,187.137655 L395.014637,148.315274 C394.831421,146.425597 396.393998,144.835516 398.259106,145.013654" id="Fill-51" fill="#243033"></path>
                        <path d="M450.081969,191 L479.521045,193.760903 C480.418298,193.845328 481.077091,194.636814 480.992721,195.529308 C480.907846,196.421802 480.111635,197.077102 479.214383,196.992677 L448,194.178506 L450.081969,191 Z" id="Fill-52" fill="#050001"></path>
                        <path d="M422.979883,168.92216 C422.747005,171.396046 420.551782,173.212768 418.077876,172.979892 C415.603489,172.746534 413.787234,170.55181 414.020112,168.077442 C414.253472,165.603073 416.448214,163.786833 418.922601,164.020191 C421.396989,164.253067 423.212761,166.448274 422.979883,168.92216" id="Fill-53" fill="#FFFFFF"></path>
                        <path d="M476.163556,69.0100474 C480.57835,68.7975055 484.370435,71.981122 485.041504,76.2730641 C486.062066,75.5146305 487.308479,75.039419 488.672054,74.9732503 C492.340994,74.7968004 495.376258,76.4084092 496.259716,80.0787666 C517.37893,77.7678751 497.576426,109 497.576426,109 L495.971046,96.9673232 L495.387227,83.4799377 C494.628909,86.1682916 492.23829,88.1954597 489.308722,88.3368201 C486.23108,88.4851984 483.5488,86.502644 482.656867,83.6829553 C481.20006,85.1622266 479.215771,86.1246804 476.984693,86.2319539 C472.255305,86.4605366 468.236871,82.7896779 468.010024,78.0340537 C467.783177,73.2784294 471.434168,69.2386301 476.163556,69.0100474" id="Fill-54" fill="#050001"></path>
                        <path d="M499,99 L498.565433,122.295589 C498.486466,126.429077 495.316974,129.792944 491.314153,129.990788 C487.020968,130.203307 483.40759,126.711929 483.332547,122.278891 L483,102.719077 L499,99 Z" id="Fill-55" fill="#B9806F"></path>
                        <path d="M498,105 C498,105 498,119.619358 483.12509,117.851715 L483,111.119472 L498,105 Z" id="Fill-56" fill-opacity="0.177502185" fill="#050001"></path>
                        <path d="M485.239499,114 L485.733643,114 C493.050006,114.004962 498.985302,108.19715 498.99037,101.028255 L499,86.3731611 C499.001013,84.5175014 497.466888,83.0124158 495.573432,83.0109261 L478.136504,83 C474.754536,82.9975189 472.009633,85.6829371 472.008112,88.9965088 L472,101.011372 C471.994935,108.17977 477.922122,113.995031 485.239499,114" id="Fill-57" fill="#B9806F"></path>
                        <path d="M485.003032,97.0766291 C485.045697,97.6275538 485.525794,98.0392235 486.076686,97.997025 C486.62711,97.9548266 487.039224,97.4742326 486.997028,96.9233079 C486.954832,96.372852 486.474267,95.9611823 485.923374,96.0029119 C485.372951,96.0451104 484.960367,96.5261732 485.003032,97.0766291" id="Fill-58" fill="#050001"></path>
                        <path d="M475.002976,97.0766291 C475.045181,97.6275538 475.525858,98.0392235 476.076409,97.997025 C476.627429,97.9548266 477.039639,97.4742326 476.996964,96.9237767 C476.954758,96.372852 476.474081,95.9611823 475.923061,96.0029119 C475.372511,96.0455792 474.96077,96.5261732 475.002976,97.0766291" id="Fill-59" fill="#050001"></path>
                        <path d="M479.285311,98 L479,100.775047 C479,100.775047 479.151924,102.52705 481,101.840491" id="Stroke-60" stroke="#050001" stroke-width="0.402" stroke-linecap="round" stroke-linejoin="round"></path>
                        <path d="M489.158248,92.9876447 C489.09216,92.9974911 489.02349,93.001711 488.953787,92.9993666 L483.970314,92.8310406 C483.414242,92.8113478 482.980537,92.3870162 483.000674,91.8811004 C483.02081,91.3756534 483.486526,90.9832053 484.046728,91.0005537 L489.029686,91.1693486 C489.586273,91.1890413 490.019462,91.6129041 489.999326,92.1188199 C489.981254,92.5604999 489.620867,92.9173135 489.158248,92.9876447" id="Fill-61" fill="#050001"></path>
                        <path d="M477.169169,92.987044 C477.103901,92.9972257 477.036083,93.0020742 476.967755,92.9991651 L473.958784,92.892984 C473.409102,92.8731054 472.980779,92.4338356 473.000665,91.9116574 C473.020552,91.3885095 473.483549,90.9817244 474.032721,91.0006334 L477.040672,91.1072993 C477.591374,91.1266931 478.019697,91.5659628 477.999301,92.0881411 C477.981964,92.5458349 477.626048,92.914802 477.169169,92.987044" id="Fill-62" fill="#050001"></path>
                        <path d="M477,104 C477,104 480.540294,106.130628 485,104.171869" id="Stroke-63" stroke="#050001" stroke-width="0.402" stroke-linecap="round" stroke-linejoin="round"></path>
                        <path d="M498.468006,99 C498.468006,99 490.8517,97.2994012 492.29647,85.9461078 L473,85.6197605 L473.465661,81 L494.869299,81.2854291 C497.921515,81.3258483 500.281847,83.9261477 499.972762,86.9071856 L498.468006,99 Z" id="Fill-64" fill="#050001"></path>
                        <path d="M496,97.9971455 C495.999049,100.206257 497.78851,101.998096 499.997145,102 C502.206732,102.000951 503.999048,100.21149 504,98.0023792 C504.001427,95.7932681 502.211966,94.0014282 500.002855,94 C497.794219,93.9985735 496.001904,95.7880344 496,97.9971455" id="Fill-65" fill="#B9806F"></path>
                        <path d="M327.219248,21.2193748 C322.894673,25.5434807 316.604429,26.2651695 313.169278,22.8304935 C309.735131,19.3953152 310.456312,13.1050217 314.780384,8.78041356 C319.10546,4.45630762 325.395203,3.73512107 328.830354,7.16929488 C332.265003,10.6044731 331.543822,16.8947666 327.219248,21.2193748" id="Fill-66" fill="#171223"></path>
                        <path d="M320,22.5002416 C320,26.0903312 317.090331,29 313.500242,29 C309.910152,29 307,26.0903312 307,22.5002416 C307,18.910152 309.910152,16 313.500242,16 C317.090331,16 320,18.910152 320,22.5002416" id="Fill-67" fill="#FB7341"></path>
                        <path d="M284.013567,33.4859853 C284.411063,43.5329349 293.803303,52.3856302 303.822636,51.9870383 C313.841969,51.5879393 322.385104,42.3128177 321.986596,32.2663753 C321.5891,22.2194257 313.282136,13.2845779 301.906461,15.2815942 C292.030247,17.0154182 283.615565,23.4390357 284.013567,33.4859853" id="Fill-68" fill="#171223"></path>
                        <path d="M310.993431,61.171796 L310.191305,40 L297,40.5783452 L297.801126,61.7501413 C297.962752,65.357489 301.046661,68.153072 304.689507,67.9934943 C308.331852,67.8339166 311.154557,64.7796394 310.993431,61.171796" id="Fill-69" fill="#A6614E"></path>
                        <path d="M310.5,41 C310.5,41 309.755089,56.7690413 297.828681,57 L297.5,49.1314419 L310.5,41 Z" id="Fill-70" fill-opacity="0.3" fill="#171223"></path>
                        <path d="M299.725825,54.9862255 L299.725825,54.9862255 C292.690163,55.2670786 286.765344,51.2391851 286.486388,44.1808766 L286.005687,32.044224 C285.799459,26.8349484 291.251051,21.1219362 294.313586,21 L305.72387,23.7230759 C308.785907,23.6011396 311.391154,26.0148773 311.512699,29.0877702 L311.991407,41.1774474 C312.271359,48.2357559 305.659113,54.7498491 299.725825,54.9862255" id="Fill-71" fill="#A6614E"></path>
                        <path d="M298.006295,38.1108435 C298.067726,38.6596823 298.562121,39.0547284 299.111067,38.9938009 C299.660013,38.932382 300.055136,38.4375917 299.993705,37.8892442 C299.932274,37.3404054 299.437879,36.944868 298.888933,37.0062868 C298.339987,37.0677057 297.944864,37.5620046 298.006295,38.1108435" id="Fill-72" fill="#231B22"></path>
                        <path d="M289.006295,38.1110641 C289.067729,38.6600119 289.561656,39.0551363 290.111119,38.9937053 C290.6596,38.9322742 291.054741,38.4378772 290.993799,37.8889294 C290.932365,37.3404731 290.437947,36.9448572 289.888975,37.0062882 C289.340003,37.0677193 288.944861,37.5621163 289.006295,38.1110641" id="Fill-73" fill="#231B22"></path>
                        <path d="M293.131776,39 L293,41.9613754 C293,41.9613754 293.194329,43.510644 295,42.8248358" id="Stroke-74" stroke="#171223" stroke-width="0.399" stroke-linecap="round" stroke-linejoin="round"></path>
                        <path d="M301.308245,34.9797495 C301.252144,34.9925393 301.193261,34.9994671 301.133452,35 L296.861448,34.9861444 C296.38436,34.9845457 295.999537,34.5390354 296,33.9901412 C296.000928,33.4423128 296.386678,33.0010658 296.867012,33 L301.138552,33.0138556 C301.61564,33.0154543 302.000463,33.4609646 302,34.0098588 C301.999072,34.4889422 301.702341,34.8880895 301.308245,34.9797495" id="Fill-75" fill="#231B22"></path>
                        <path d="M291.202905,34.9802192 C291.138261,34.99305 291.070412,35 291.002563,35 L287.993163,34.9919808 C287.442357,34.9903769 286.998933,34.5439732 287,33.9938541 C287.000536,33.4432004 287.448767,32.9984005 287.997437,33 L291.006837,33.0080236 C291.557643,33.0096274 292.001067,33.4565658 292,34.0061502 C291.99893,34.4878386 291.656479,34.8882654 291.202905,34.9802192" id="Fill-76" fill="#231B22"></path>
                        <path d="M291,45 L299,45.0015913 C299,45.0015913 298.253035,48.3109207 294.181156,47.9762217 C291.40068,47.747608 291,45 291,45" id="Fill-77" fill="#FFFFFF"></path>
                        <path d="M306,30.2783135 C306,30.2783135 306.163866,38.3293775 310.832458,39 L314,30 L306,30.2783135 Z" id="Fill-78" fill="#171223"></path>
                        <path d="M316.996378,38.3210618 C317.095151,40.8044449 315.16174,42.8971559 312.678721,42.996413 C310.195212,43.0946922 308.102395,41.1613792 308.003622,38.6779962 C307.904849,36.1951021 309.83826,34.101902 312.321279,34.0036229 C314.804788,33.9048547 316.898094,35.8376787 316.996378,38.3210618" id="Fill-79" fill="#A6614E"></path>
                        <path d="M305.798006,15.0336373 C305.798006,15.0336373 281.778487,13.5083484 282.001544,31 L315,31 L310.540356,19.1097711 L305.798006,15.0336373 Z" id="Fill-80" fill="#171223"></path>
                        <polygon id="Fill-81" fill="#A6614E" points="314.30546 276 304 276 306.382789 241 319 241"></polygon>
                        <path d="M302.689968,274 L319.67244,274 L331.605135,279.739062 C334.303023,281.137958 336,283.940363 336,287 L302,286.594679 L302.689968,274 Z" id="Fill-82" fill="#231B22"></path>
                        <path d="M321,274.786876 L317.306159,270.062953 C317.306159,270.062953 311.52665,269.066768 312.031214,275 L321,274.786876 Z" id="Fill-83" fill="#231B22"></path>
                        <path d="M321.371978,107 C321.371978,107 341.241841,121.146053 332.996524,168.315066 L321.371978,248 L304,248 L305.007035,121.948113 L304,107 L321.371978,107 Z" id="Fill-84" fill="#000000"></path>
                        <polygon id="Fill-85" fill="#A6614E" points="253 276 263.000246 276 273 241 260.757071 241"></polygon>
                        <path d="M264.310032,274 L247.32756,274 L235.394865,279.739062 C232.696469,281.137958 231,283.940363 231,287 L265,286.594679 L264.310032,274 Z" id="Fill-86" fill="#231B22"></path>
                        <path d="M246,274.786876 L249.693841,270.062953 C249.693841,270.062953 255.47335,269.066768 254.968786,275 L246,274.786876 Z" id="Fill-87" fill="#231B22"></path>
                        <path d="M288.892797,107 C288.892797,107 280.023963,115.047146 273.504383,150.419152 C266.984301,185.791159 255,246.720125 255,246.720125 L271.670281,248 L307.590612,138.023834 L310,107 L288.892797,107 Z" id="Fill-88" fill="#000000"></path>
                        <polygon id="Fill-89" fill="#100E11" points="304 148.327341 295.398086 136 292 183"></polygon>
                        <path d="M264,86.998368 C264.607989,87.0187375 265.88807,86.8438579 266.485541,86.7290932 L302.249188,79.212749 C307.33696,78.4615618 314.779561,71.0574983 312.615042,66.4276608 C311.025457,63.028439 307.186215,61.2736815 303.549302,62.2842072 L266.97684,74.549128 L264,86.998368 Z" id="Fill-90" fill="#A6614E"></path>
                        <path d="M268.508502,74.9892285 L236.465098,53 L232,58.7065226 L258.412642,85.0305525 C263.015174,89.0775873 271.723049,86.5227695 273.653192,80.6871079 C274.991155,76.6436319 272.284407,76.9191964 268.508502,74.9892285" id="Fill-91" fill="#A6614E"></path>
                        <path d="M236.450061,55.7151026 C234.950204,59.2775735 230.846794,60.9494156 227.284756,59.450069 C223.722231,57.9502352 222.050363,53.8468885 223.55022,50.2844176 C225.04959,46.722434 229.152999,45.0505919 232.715037,46.5499385 C236.277562,48.0497723 237.94943,52.153119 236.450061,55.7151026" id="Fill-92" fill="#A6614E"></path>
                        <path d="M232,46.9610603 L225.92425,42.2933782 C225.438598,41.8638586 224.687515,41.9118073 224.267978,42.3988654 C223.90532,42.8213189 223.911153,43.4406146 224.283049,43.8600397 L229.899885,50 L232,46.9610603 Z" id="Fill-93" fill="#A6614E"></path>
                        <path d="M291,64 C283.864418,65.5263622 274,69.5835947 274,69.5835947 L285.034211,84 L288.817033,83.0778126 L291,64 Z" id="Fill-94" fill="#FF4133"></path>
                        <path d="M285,84 C284.225586,79.7046221 284.225586,75.3712887 285,71 L278,75 L285,84 Z" id="Fill-95" fill="#DB2721"></path>
                        <path d="M351.724276,111 L355,105.08336 L338.499984,77.9871557 C336.371703,74.3604561 326.611073,67.7358252 323.68837,70.7763763 C321.541803,73.0086543 321.457993,79.8945199 323.346016,82.3439085 L343.588048,109.003385 L351.724276,111 Z" id="Fill-96" fill="#A6614E"></path>
                        <path d="M344.219116,110.699351 L353.749901,148 L361,147.245645 L356.439135,108.993745 C356.361678,104.640705 351.784107,101.769593 347.716336,103.52182 L347.716336,103.522316 C344.898006,104.736425 343.410624,107.788563 344.219116,110.699351" id="Fill-97" fill="#A6614E"></path>
                        <path d="M318.458896,63 C318.458896,63 330.269784,64.6826667 338,74.7558529 L321.121729,91 C321.121729,91 310.231868,80.7407521 317.500829,71.0011588 L318.458896,63 Z" id="Fill-98" fill="#FF4133"></path>
                        <path d="M351.669607,146.500451 C354.706969,144.108934 359.108125,144.632465 361.499713,147.669736 C363.890807,150.707007 363.367755,155.108032 360.330393,157.499549 C357.293031,159.891066 352.891875,159.367535 350.500287,156.330264 C348.109193,153.292993 348.632245,148.891968 351.669607,146.500451" id="Fill-99" fill="#A6614E"></path>
                        <path d="M303.990136,61.0128207 C303.990136,61.0128207 296.129638,60.4300471 284.433188,67.1227051 C284.433188,67.1227051 282.083178,87.0159092 288.330185,94.377733 L289.224529,107 L320.765783,106.858676 C320.765783,106.858676 322.51427,84.3382467 329,78.6498371 L326.837594,67.4398098 C326.837594,67.4398098 317.226623,60.7771145 303.990136,61.0128207" id="Fill-100" fill="#FF4133"></path>
                        <path d="M291,64.0489516 C291,64.0489516 303.081766,57.661867 319,63.3764982 L313.592587,66.634107 C306.692649,70.7901135 297.142727,69.1845394 291,64.0489516" id="Fill-101" fill="#A6614E"></path>
                        <path d="M325,87.3194895 L323.988337,88.2760327 C323.988337,88.2760327 319.763876,85.3876861 317,81 L321,103 L325,87.3194895 Z" id="Fill-102" fill="#DB2721"></path>
                        <path d="M126.25614,143 C126.25614,143 133.800256,152.536927 129.861213,164.077665 C125.922169,175.618403 115,163.246829 115,163.246829 L126.25614,143 Z" id="Fill-103" fill="#B9806F"></path>
                        <path d="M126.828642,60.0056278 C126.828642,60.0056278 125.968726,56.4088323 118,53 L123.617954,97.185845 L124.153402,94.5093693 L119.85182,150 L132.472594,149.260645 C135.138835,82.3007607 126.828642,60.0056278 126.828642,60.0056278" id="Fill-104" fill="#00192C"></path>
                        <path d="M102.904833,48 C102.904833,48 89.2388545,48.559311 79.0874132,54.7653097 L77,128 L125,128 L125,63.2716439 C125,59.2918732 123.92603,55.9465225 122.492403,55.2304842 C119.275996,53.6236543 110.749766,48.7565971 102.904833,48" id="Fill-105" fill="#000000"></path>
                        <polygon id="Fill-106" fill="#00192C" points="78 89.7686178 85 80 85 100 78 98.6009807"></polygon>
                        <path d="M78,115.940061 C77.9964518,116.074923 90.9901886,115.940061 90.9901886,115.940061 L90.9901886,112.927631 L93.8090726,112.927631 C93.8090726,112.927631 107.416272,115.99983 112,103.577194 L100.955653,101 L78.3868368,106.197298 L78,115.940061 Z" id="Fill-107" fill="#00192C"></path>
                        <path d="M94,67.5443389 C94,67.5443389 81.334326,84.68917 67.9872111,104.663083 C66.4914137,106.901277 62.8868198,108.065866 60.2299941,107.997123 C54.2334139,107.842451 51.5795638,101.30933 53.7503546,95.914513 C53.7503546,95.914513 69.1264175,62.8905324 78.6705568,55.0042842 C79.0003663,54.7318391 94,67.5443389 94,67.5443389" id="Fill-108" fill="#000000"></path>
                        <path d="M109.057116,89.9933969 L97.5200019,105.131892 C96.3835742,106.622459 97.207297,108.791467 99.0455625,109.147962 L108.358775,110.953967 C109.294392,111.135218 110.252488,110.772715 110.834439,110.016667 L122.472458,94.8976986 C123.619376,93.407632 122.798151,91.2291107 120.95489,90.8716149 L111.540273,89.0460831 C110.60016,88.8638303 109.638068,89.2308393 109.057116,89.9933969" id="Fill-109" fill="#050505"></path>
                        <polygon id="Fill-110" fill="#B9806F" points="93 104 78.022373 104.203344 75 111 91.8165863 110.191501"></polygon>
                        <path d="M93.1655875,103.287332 L102.866059,96.2412568 C103.357644,95.8839953 104.025185,95.9274392 104.46955,96.345522 L104.46955,96.3460331 C104.969585,96.8167595 105.025751,97.6069258 104.597789,98.1476735 L102.477365,100.828412 L109.790991,101.634423 C110.732905,101.757599 111.276681,102.798717 110.855677,103.673726 L109.749239,105.978804 C108.76607,108.026796 106.932941,109.504908 104.760823,109.984323 C100.996149,110.815378 95.3680261,111.87234 92,109.776815 L93.1655875,103.287332 Z" id="Fill-111" fill="#B9806F"></path>
                        <path d="M55.1560912,93 C55.1560912,93 49.4340979,102.359545 53.3991747,107.673804 C57.3971335,113.031582 74.6946418,116.034885 89.3909221,114.673434 L90,100.422456 L72.793044,97.0729795 L55.1560912,93 Z" id="Fill-112" fill="#000000"></path>
                        <path d="M96.4966768,26 L95.0164624,48.7899918 C94.7561354,52.8337936 97.6119467,56.3922796 101.550426,56.9306923 C105.774536,57.5083074 109.630781,54.4098292 110.068714,50.0871445 L112,31.0119522 L96.4966768,26 Z" id="Fill-113" fill="#B9806F"></path>
                        <path d="M96.3855243,32 C96.3855243,32 92.3967905,48.9402207 110.079327,49 L111,39.9929065 L96.3855243,32 Z" id="Fill-114" fill-opacity="0.3" fill="#231B22"></path>
                        <path d="M103,5 C103,5 92.7426489,6.63069592 93.0049461,13.620922 C93.2667646,20.611148 94.1493851,28 94.1493851,28 L99.7643634,16.571875 L103,5 Z" id="Fill-115" fill="#231B22"></path>
                        <path d="M122.395526,12 C122.395526,12 130.083161,23.0777566 119.042914,28 L117.208659,27.0345406 C117.208659,27.0345406 113.886365,18.4099074 118.258062,13.8442287 L122.395526,12 Z" id="Fill-116" fill="#231B22"></path>
                        <path d="M107.786334,44.9827563 L107.303754,44.95822 C100.155564,44.5891744 94.6548373,38.3915108 95.0168955,31.1157531 L95.7577374,16.2417611 C95.8521874,14.3579758 97.4278293,12.9088331 99.2779664,13.0044745 L116.31192,13.8837746 C119.616685,14.0540264 122.159455,16.9192628 121.9922,20.2827359 L121.38467,32.4762647 C121.022612,39.7525231 114.934032,45.351802 107.786334,44.9827563" id="Fill-117" fill="#B9806F"></path>
                        <path d="M108.991665,29.1277619 C108.921413,29.6753782 108.420347,30.062013 107.872291,29.991758 C107.3247,29.9215031 106.937618,29.419948 107.008335,28.8723317 C107.079052,28.3247154 107.580118,27.9376154 108.127709,28.0083356 C108.6753,28.0785905 109.062382,28.5796804 108.991665,29.1277619" id="Fill-118" fill="#171E21"></path>
                        <path d="M117.991758,30.1277619 C117.921503,30.6753782 117.419948,31.062013 116.872332,30.991758 C116.324715,30.9215031 115.937615,30.4204133 116.008336,29.8723317 C116.079056,29.3247154 116.57968,28.9376154 117.127297,29.0083356 C117.675378,29.0785905 118.062013,29.5801456 117.991758,30.1277619" id="Fill-119" fill="#171E21"></path>
                        <path d="M113.861068,31 L114,33.9673813 C114,33.9673813 113.677983,35.539294 111,34.8042725" id="Stroke-120" stroke="#000000" stroke-width="0.394" stroke-linecap="round" stroke-linejoin="round"></path>
                        <path d="M105.79078,25.9100438 C105.855816,25.923795 105.924436,25.9316529 105.994081,25.9326351 L110.977754,25.999918 C111.534397,26.0067936 111.991182,25.580505 111.999888,25.046662 C112.008081,24.5128191 111.565635,24.076217 111.005407,24.0668858 L106.021734,24.0000941 C105.465602,23.9927273 105.008817,24.4190159 105.000111,24.95335 C104.992942,25.419419 105.332971,25.8132939 105.79078,25.9100438" id="Fill-121" fill="#171E21"></path>
                        <path d="M116.780549,25.9357157 C116.845291,25.9496482 116.912561,25.9571121 116.980843,25.9586048 L119.990313,25.9999047 C120.540616,26.0073685 120.991784,25.5754615 120.999876,25.03508 C121.008475,24.4937034 120.567929,24.0493566 120.019143,24.0418928 L117.009673,24.0000953 C116.45937,23.9926315 116.008203,24.4245385 116.00011,24.96492 C115.993029,25.4381269 116.32837,25.8376908 116.780549,25.9357157" id="Fill-122" fill="#171E21"></path>
                        <path d="M106,36 C106,36 110.104095,40.0392126 116,36.6371573" id="Stroke-123" stroke="#000000" stroke-width="0.394" stroke-linecap="round" stroke-linejoin="round"></path>
                        <path d="M95,30 C95,30 103.469262,25.9625937 102.979553,12.0140997 L95.223563,11 L95.1127493,13.0187031 L95,30 Z" id="Fill-124" fill="#231B22"></path>
                        <path d="M97.9940991,28.7281382 C97.8685034,31.2095526 95.7541396,33.1197354 93.2721045,32.9941454 C90.7900694,32.868049 88.8797987,30.7537826 89.0059009,28.2723682 C89.1314966,25.7904473 91.2458604,23.8802646 93.7278955,24.0058546 C96.2099306,24.1319509 98.1202013,26.2462173 97.9940991,28.7281382" id="Fill-125" fill="#B9806F"></path>
                        <path d="M100.940067,19.5438828 L105.935253,17.0265747 C105.935253,17.0265747 117.396818,22.8918876 122.457678,18.1470265 C127.920044,13.0258796 127.631975,1.98403998 117.574933,0.245510219 C108.843308,-1.26408345 101.791836,4.47118579 100.483336,9.69616984 C99.1738408,14.9216484 100.940067,19.5438828 100.940067,19.5438828" id="Fill-126" fill="#231B22"></path>
                        <polygon id="Fill-127" fill="#0091FF" points="77 128 77.1275558 144 124.946477 144 125 128"></polygon>
                        <polygon id="Fill-128" fill="#B9806F" points="84 275 97 275 97 257 84 257"></polygon>
                        <path d="M97,273 L80.5,273 L68.4412462,278.738608 C65.7140772,280.137206 64,282.940411 64,286 L97,286 L97,273 Z" id="Fill-129" fill="#231B22"></path>
                        <path d="M79,273.786554 L82.6936173,269.062938 C82.6936173,269.062938 88.4733474,268.066856 87.9687876,274 L79,273.786554 Z" id="Fill-130" fill="#231B22"></path>
                        <polygon id="Fill-131" fill="#0091FF" points="103 135 97.9720781 261 78.7889795 261 77 135"></polygon>
                        <polygon id="Fill-132" fill="#0459AE" points="76 253 98 253 97.6767609 261 76 261"></polygon>
                        <polygon id="Fill-133" fill="#B9806F" points="109 275 122 275 122 257 109 257"></polygon>
                        <path d="M109,273 L125.5,273 L137.558754,278.738608 C140.285421,280.137206 142,282.940411 142,286 L109,286 L109,273 Z" id="Fill-134" fill="#231B22"></path>
                        <path d="M127,273.786554 L123.306383,269.062938 C123.306383,269.062938 117.526653,268.066856 118.031212,274 L127,273.786554 Z" id="Fill-135" fill="#231B22"></path>
                        <polygon id="Fill-136" fill="#0091FF" points="125 138 123.929409 261 103.384737 261 102 139.988629"></polygon>
                        <polygon id="Fill-137" fill="#0459AE" points="102 145 108 145 102.748146 215"></polygon>
                        <polygon id="Fill-138" fill="#0459AE" points="126 253 103 253 103.085063 261 126 261"></polygon>
                        <line x1="0" y1="286.5" x2="553" y2="286.5" id="Stroke-139" stroke="#231B22" stroke-width="0.282"></line>
                        <line x1="120" y1="307.5" x2="374" y2="307.5" id="Stroke-140" stroke="#231B22" stroke-width="0.282"></line>
                    </g>
                </g>
            </g>
        </g>
    </g>
</svg>